<?xml version="1.0" encoding="utf-8"?>
<svg width="400" height="400" style="width: 400px; height: 400px;">
  <g class="water">
    <path fill="#e2e3e5" d="M474.99999999999994,950L425.3489799478644,947.3979002999298L376.24194686156443,939.6201103485578L328.21692767190024,926.751845240198L281.8000945389954,908.9340923802356L237.5000000000005,886.3620667976086L195.80200516107584,859.2830723281004L157.16296197954296,827.9937921017629L122.00620789823842,792.8370380204584L90.71692767190058,754.1979948389256L63.637933202392276,712.5000000000011L41.06590761976514,668.1999054610064L23.24815475980256,621.7830723281015L10.379889651442681,573.7580531384374L2.6020997000703687,524.6510200521373L0,475.000000000002L2.602099700069914,425.3489799478667L10.379889651441829,376.24194686156653L23.24815475980131,328.2169276719023L41.06590761976355,281.80009453899726L63.637933202390286,237.50000000000236L90.71692767189825,195.8020051610776L122.0062078982358,157.16296197954455L157.16296197954,122.00620789823984L195.8020051610726,90.71692767190189L237.49999999999704,63.637933202393356L281.80009453899163,41.065907619765994L328.21692767189654,23.248154759803185L376.24194686156045,10.379889651443136L425.3489799478608,2.6020997000705393L474.99999999999994,0L524.6510200521311,2.6020997000696866L573.7580531384313,10.379889651441374L621.7830723280957,23.248154759800627L668.1999054610008,41.06590761976264L712.4999999999958,63.63793320238926L754.1979948389207,90.71692767189705L792.837038020454,122.00620789823449L827.993792101759,157.16296197953875L859.2830723280972,195.8020051610714L886.3620667976061,237.49999999999594L908.9340923802336,281.80009453899066L926.7518452401965,328.21692767189563L939.6201103485568,376.2419468615599L947.3979002999295,425.3489799478602L950,474.9999999999956L947.3979002999304,524.6510200521311L939.6201103485586,573.7580531384316L926.7518452401993,621.7830723280961L908.9340923802371,668.1999054610013L886.3620667976104,712.4999999999965L859.2830723281024,754.1979948389215L827.9937921017648,792.8370380204548L792.8370380204606,827.9937921017597L754.1979948389278,859.2830723280979L712.5000000000033,886.3620667976065L668.1999054610085,908.934092380234L621.7830723281037,926.7518452401968L573.7580531384392,939.6201103485569L524.6510200521392,947.3979002999295L475.00000000000006,950Z"/>
  </g>
  <path class="land" fill="#fff" d="M495.5432754894223,810.7343745639703L494.1129159366635,813.5882655046735L492.8431532952377,816.088530650354L490.42361315161776,814.9578811300951L487.45113749332774,814.9824087024499L486.22676880633435,812.9120315467376L486.2727871943853,812.6867485549527L485.8604734805389,810.9153221389583L488.9242317260268,811.4229390316232L491.71249344349906,812.3229770034993L493.46992569588514,810.0848860329855L494.88094724744207,808.1487345437322ZM388.72451190691226,851.8433316995413L389.64444889597735,853.716817436832L386.6988385669147,854.3636513946717L383.7986589908915,854.4044863076513L383.31569710615076,854.3589754918928L381.07438730454203,854.5884975869913L378.0619605685367,853.476881725023L379.4415112730242,851.9091736064972L382.07607978452495,851.4666434373203L385.0350189841254,851.3457724847312ZM522.5442197562782,804.363317583613L522.6253232542866,807.3111513145691L520.7301773748706,810.7796075037136L519.103641411388,813.1157589348129L517.0316549545709,815.8112413479942L513.851990268855,816.8310262671409L510.90016269826305,817.5578597457627L507.7900463765927,818.1585387165973L504.6306932995656,818.5529798313021L501.9737669912628,817.5542875048667L501.3004313913724,815.3630793957386L502.6776718843422,813.1214996765093L506.32726385604155,812.2299778757724L508.54206126105987,810.6596520429691L510.8088105791304,808.4845931801955L512.6931994206776,806.5705189116472L514.7823718491218,804.8220684786716L517.187559983026,802.775339578069L517.9732693558502,802.9934445185934L521.0622775492908,802.4585590432844ZM376.08365135884355,793.5687717876585L379.0761828355279,793.0972896807866L380.05427022454035,791.039879694472L381.0941599309168,793.3978083704482L381.04893625216187,795.5881872565915L378.4220490558761,796.5255759842228L374.7930266253792,795.7731902916937L373.1466681072026,793.895962806056ZM369.2967929038194,797.969049082023L373.9610264322979,798.2544770040047L372.85263044896425,798.6719581887916L370.36934288892735,799.5518934316887L366.68586121870146,799.7351507738933L366.3671813681526,797.926742700736ZM412.9112728373267,766.22004010095L415.91928538661045,766.4045640868524L418.1290115822087,765.0312506643955L421.2096676678741,768.2658937906931L419.173157995226,768.2107315651083L416.51742838268,769.1529382758756L413.5874267940711,769.6590107832947L410.756982733693,770.8811626008036L407.7766757334805,770.3578970053592L405.07036510071515,768.2103461673707L405.85244711374725,766.6910539529434L409.27635749805904,766.6722376737246ZM490.1239620853444,752.173265171047L490.0917075947773,755.2063850997839L489.33061009567894,757.7845552830345L488.355647103627,760.2150783010932L485.3092150791578,760.9815882929186L482.41318790533745,762.1783039381712L479.15406929518133,761.9788982639288L480.49156076497644,759.4027227015765L477.4733888611315,760.2648377790094L474.65232190760486,761.1608731879029L472.6991356634183,759.218582111074L472.49791347248066,756.4808814634616L475.36940009706666,753.8515137789025L477.20359798483213,753.0646469261014L480.2872272775194,753.3698741654384L481.2341346904195,749.9550293982741L481.5098105623302,747.4482201972123L481.70177391424363,741.9626045126726L483.5342448867382,738.772596750241L486.3439559895579,737.7797203776479L487.7033004641601,740.4067120219152L488.1585754842383,742.9879806485868L489.0950459520449,746.1268948884556L489.71552944542424,749.0878359139314ZM432.9210423546035,867.8663410218594L432.97616773025624,867.8360911309467L428.15671414372105,867.7983077069889L430.29941667799505,866.8116767750498L429.99275944610537,866.7747860067457L429.274790440429,866.6799062627364L428.3825976170662,866.5604120934408L427.62116648112345,866.4514010161056L427.2400451558848,866.3940585165569L427.22764206797535,866.3224196008985L427.34604368935754,866.2673594683156L430.4895142109683,865.4919841256584L426.9289369997583,864.9561208948793L426.43004498696195,864.8481322353766L424.66332425477293,863.3644687237227L426.5023216830577,862.948631259067L427.4577596356584,862.757242623185L430.10969291992876,862.1697870089982L432.15920458373694,861.0390260829074L434.77262612323887,860.3071607227091L436.8973054866888,858.9924308995645L434.9077283759647,857.5327208963911L437.06111643717867,856.1481065742264L439.9593454170714,855.7991379141931L438.1326369603972,854.2748414515364L436.6479143717198,852.6241269819641L433.0806942115076,851.4415687411835L431.7582430156779,853.0483669995969L429.18752004437584,854.0443211157873L425.8849968059729,853.7385717589525L423.64608433112363,854.7286991220378L420.03113138475567,853.8946512024606L416.7769222894388,852.9777651084011L413.85091953961796,852.0857842162824L410.4943781230301,851.4536886876846L407.93170799159907,852.0627565527395L404.92047370709815,851.9743959534173L402.10879042607576,852.563018452587L403.0439968783212,850.889774002891L402.3344928803457,848.8983405234032L405.4034195472469,848.5524136421873L403.637732780711,846.6391192556885L401.30604652035595,844.548761800675L399.02734824723956,843.1034798295127L395.6724389267247,842.3205009606249L392.9853627957017,842.6735566337267L390.08591874730007,843.1826394187208L388.88047494496396,844.817384169718L387.2277512442342,846.09405863711L385.92848026785407,847.6223273323039L382.7806181414552,847.4733494449815L379.9826610132036,848.083110602892L376.99609035649416,848.1731121622105L367.7823391972133,846.2846795194883L368.6657098117719,845.954608834154L371.37116848475534,845.6413541025945L370.99875184212726,843.7081074346519L370.3906807207917,841.7245485891997L374.09869503376075,841.8916738330956L373.91263223714566,840.0343658312335L372.784012883814,838.1154113483469L371.23106845194957,836.073012295862L369.23278780176867,833.9314139712325L369.337984516766,832.0322376044L366.46058634616844,830.9444064458212L363.3940975973031,830.1922040912782L360.88494999263173,828.7692162094634L360.40938482407347,826.716620136306L363.3276235482782,827.1254245521877L362.98121775625236,824.7513402819036L361.9891047811859,822.557455517611L363.03809063900883,820.8627618548396L363.5358858497616,818.986753918944L363.12154874513703,816.570516934938L362.6569682996586,814.5083073466461L362.42332318336196,812.2712680464119L363.69396266924036,811.6264695446375L364.9941450038693,811.1838369433665L365.77344588794426,808.9588899030531L368.5540653830428,808.2659604765133L370.1248284306181,806.7219002644001L370.9129142769617,804.7263119823403L373.3249879800899,803.7653506359566L375.9762128821162,802.7124129578622L377.68777903852714,801.1514166690547L379.910885942361,799.84096979171L382.2339221339745,798.5231242478014L384.10722314044045,797.057549401942L384.0499176975569,794.626046156043L385.16757618691713,792.7147787739591L388.4213890036585,792.7212416295577L389.5079869146115,790.7542827927159L389.5805765541555,787.9281170999265L392.31300554145093,789.0813464426799L394.7011417920513,790.7000746002923L397.48133585133075,791.9894455160252L397.8504663984037,789.5739230331873L401.7366779962059,790.7168148697926L404.6708744332462,790.3953316251852L407.9488225390152,791.124526188542L410.21112402733286,789.8523713590132L411.80224810184217,788.0266226609259L414.7583405418546,787.3136261994064L417.82423359203517,787.3080740300492L421.0501921843985,787.5680085631308L420.5348056254043,784.7454287463045L418.0803476826728,783.133631665404L415.82491150302553,781.319970469665L412.9467282595085,781.6491875375636L410.3740227194488,779.8119256199973L408.48821575875854,777.7468538691737L404.84014133086185,773.5441866722988L407.0210418414569,773.8331266682619L410.07627841028824,773.3120208171011L412.69192163752797,772.1218593055435L415.82826130020186,772.3643176208727L419.03772246510204,773.5810487394403L421.0975318202887,775.5035106364242L424.20076704637876,775.1524479862196L426.6193830290814,773.6572053440312L429.12807453387984,771.779305421641L431.607270433427,770.4793481250654L434.49287105844513,771.533716428379L437.34355927825186,770.5150983002102L437.73137163365595,765.306159314959L440.55363649934867,767.9089052830143L443.5915383016767,768.6551409191087L446.3622883864183,767.6434406180606L448.90415316750153,769.9468952074524L452.0027528146035,769.8721289417665L454.9583065954961,770.3620417409858L457.9452701034162,771.5357715252981L459.39896220991375,768.9981804621657L460.0041976727359,766.6368637407696L462.6853598853524,769.0551993479011L465.8483376289324,768.2680138784622L468.3392533468887,769.585364484175L470.0358181952054,771.7077020954004L473.0727747358629,771.0254629408857L475.4664889315646,769.6220384947112L477.88627397464853,767.9743991692463L480.804289396901,767.1323759280249L484.23036349965025,766.4760358640804L487.381038710834,765.7182856970131L489.9227191099414,764.4456013871743L491.6426855147732,762.4723040341369L492.63144659299127,759.6780618075493L492.72455709980784,756.9195472978422L492.2593214584368,754.2578884883249L491.65379475744123,751.5656040871004L491.11709586551063,748.879238625252L490.6797856582348,746.4427679787294L490.810373179507,743.7734956513045L491.38637302748657,741.1051106945168L493.0544185130147,738.6303534547419L494.57371978063077,735.8700674885183L495.398614510637,733.1956984352664L495.16289921634507,730.153654640362L495.13377964450274,727.3863194162398L497.09547587219953,724.3307323372496L499.14877485107934,722.3963910172571L501.6582262316691,719.9331448930639L504.2814615431322,717.8973549736481L507.3301636518513,716.0697761438491L509.21275674207976,713.1316140817291L511.460693980966,711.3710902330254L513.9926274667241,709.7838860790393L517.4262411801321,709.767689740556L520.1187592289251,707.7953692233411L522.9285665572991,706.7347315342378L526.0343354294347,706.2975931078697L529.082128924952,704.868602895332L531.708429011529,702.9320073958762L534.7541206726938,702.5573681013742L536.303222226872,704.7399549908164L534.2917837948501,706.8745417957484L530.1294559597058,708.37949250516L528.2071667325171,709.6703331110132L525.92041581593,708.1731007200453L522.8631512216291,708.462110425781L520.0803955864511,709.8190250175908L517.153120736651,711.3079427424825L515.018783734495,713.2003919212408L513.9685279730254,715.9198706136267L513.6157952121368,718.5755124041576L514.6475551179848,721.1068019418822L512.0566228191803,722.493122150193L508.89032766908053,722.7031889610073L506.66739591225496,724.8593027864132L504.3990421498255,726.8689900735712L501.91581672171753,729.7012001148681L501.0036981644829,732.2460068652081L501.6084242459941,735.1841419899165L502.816964421209,737.48440230962L504.9479778109892,739.3366427557612L506.7297487567997,741.7092502223836L507.31861649984876,744.5047462172638L507.3532482968211,747.0868879272417L507.5482782191738,749.8181921550749L508.2722194306865,752.187338024055L508.42819946005534,754.7580243175373L507.19778902165444,760.8599039618916L507.26620349225607,763.3818318482606L506.75857027595026,765.9523883285888L506.79094721109345,768.5718521922141L505.50825408167685,771.9194021576088L503.5480676236542,774.3737301460233L501.6895017320436,776.3241159830839L498.5815660660982,776.8546934810267L497.1022221232269,778.9778372012079L495.36058107873276,780.9485602263994L491.7923773201445,783.005286623458L488.9252507348169,783.7864820467862L486.2223144488072,784.9751630495259L483.3896336165938,786.1972964604508L481.60883928580375,788.7013931498238L478.52523502083335,788.86144941463L475.16242810270285,788.5863633995143L472.1368459531875,789.0925278691348L468.9294661013518,789.1684750390796L469.68440363803734,791.582747537587L472.539780115835,792.6090273188443L474.5918964952988,794.2794603673885L475.69113221306696,796.4352862405817L473.78483712410394,798.3447319393972L470.83377706475363,797.7950233492795L468.5389960538461,799.4213123340351L468.66626371935666,801.9038135624651L468.82396077052414,804.2568375916603L470.78423102177135,806.1699286993532L471.2464529565628,808.3656859147334L473.1647954796229,810.521239209696L476.1157077002543,811.4361595248795L478.4969192423075,813.0784802295664L480.2345814302888,814.9578785942076L482.32374475701374,816.886181860104L485.2227744469754,817.9961713447742L487.77252667416,819.8336179591994L489.23357629049417,821.7153667682215L490.6317265242215,823.8419050612356L490.64922269605773,826.5676946134535L490.3001366899317,828.6561414115503L492.29240842435473,826.95143576588L494.6762757000554,825.6821393219562L497.3389126006831,824.3608627846102L500.2959226102964,823.5030556357481L503.1076193984728,822.5266800118716L505.85922501864894,823.1601611376974L507.8935625222261,824.6546918598601L508.93971034991205,826.5218780705071L511.4415895993451,824.5940069147935L514.1686120845299,823.6618486781338L516.8591074777646,824.5952286711777L519.9180009844669,824.4250201272789L522.9260352050898,824.2762250313958L525.7364741992501,824.6708153807817L528.8911828309787,825.034483286805L531.8620409006985,824.762418419239L533.2056205147943,822.7656749790985L534.7744124250344,820.906418391945L536.8965561535202,819.1908191863249L534.5046007600121,818.1843724898931L531.3003422234913,817.735772704142L529.0045622770484,816.645739627106L530.5474828387565,814.6469595913586L534.4712910090165,810.9917688230673L536.1614028147897,810.1711903856242L539.2660961773224,809.9015854803293L542.749229283409,809.8549571640881L545.963411439538,809.2561308143288L549.2176183527561,808.7079807521819L552.6478499812235,807.5027436609673L555.4987616001115,807.746499740884L558.0980408580493,808.2123347987117L559.4691824083436,808.4166112341904L561.6923324073518,809.5729105777457L564.385056891507,810.2534281524686L567.1498548113229,810.5037706681658L570.1390735033168,810.6083604980001L572.9939753915314,810.6486369817148L576.714880688494,810.6955358727937L579.9872700314129,810.1887749496088L583.0664196456498,809.9547803040623L586.084502101269,808.6157907997522L586.3980460315942,806.4161971382475L589.6045528040015,805.0269559024324L592.5535927373695,804.4425865717244L595.175894890848,804.837044501866L598.128357440125,805.1796601790966L601.5171503393761,805.1394086097941L605.1822958752298,804.5023118709721L609.0459635820914,803.1870736713947L611.845188429107,803.0245584583631L612.7970573981316,804.9207335181103L610.9582284670106,806.9488091153705L611.9434115179761,808.7492855388462L614.6726416635349,807.3350129180492L618.0315870835661,806.5138851374273L618.4219150035483,808.4546651742066L615.9560146411573,810.2547051617257L616.6549724770924,812.1710492621795L619.1108706342204,813.3906393865137L621.0340940128862,814.8034493736028L621.4973943628675,816.6798114894531L618.7184060967721,818.7256778234325L622.0087743851502,819.2170996564585L624.0428231903411,820.1489976865904L625.8000942421838,821.4185873446963L627.4969356392805,822.6902999939882L629.8483867957916,823.536564525503L631.5936715805595,824.8143542245862L633.6499564539293,825.5388458994494L636.6163962146351,825.4697005577382L634.9313788600607,827.4262702486988L636.3460050699853,828.7163431528792L632.9235136350458,831.1828728483594L630.3151767642594,833.019596562626L632.0942673786165,834.3039879435654L635.2372437183774,834.018752097505L637.5237905073708,834.9814347364584L637.1839658588879,837.2799964313554L634.2989753598083,838.7929196362415L637.2201597127388,839.2657994412385L638.1008669679358,840.7670712452518L638.3065490855305,842.6144906359914L638.0153208457066,844.3963827505152L636.8807365005368,846.4645659695589L636.1693787934993,848.3353756065753L633.4497652168237,849.7022782043152L630.9652197238233,851.2475361065965L631.9549336197477,852.6794926371529L631.798438244045,854.4779037067724L631.2820616980325,856.2692700816176L630.8568396239857,858.0002538855977L631.3434685765976,859.390528257916L631.5953612830803,860.9083961548911L633.0839903036151,861.9680296608744L633.7353496479057,863.2588120717814L633.6862280296112,864.7784133282166L635.1027955404045,865.7052662469273L638.6877093169885,865.9978566341547L640.6217364360743,866.5736384075365L638.4763556260209,868.4618688728598L635.5199109522596,869.4467123295208L632.9449732422786,871.0395395580367L632.4253735076388,872.6316294802818L629.1264984221875,873.9993466336421L626.4765908436741,875.3076655980806L627.0002381510023,876.7312264426705L629.6426545431397,877.0303819063778L629.7735955207268,878.3361549747367L630.7548304068001,879.7906308596458L630.3755932632799,881.261319179908L630.0558843935964,883.0149334092673L630.3516150156979,884.1603443897947L630.6735693025973,885.3630093288864L630.8591030816273,886.524116445101L628.5656407894569,888.0244329615499L629.3462669861049,889.3381633952763L629.985749411285,890.2867145352429L628.1937367977474,891.7513501637061L628.1661193441043,892.9900644495849L629.9996859843764,893.2372156382547L630.0754733249494,894.5102199980984L629.6488668721513,895.7649687320447L628.5578865324014,897.3041226376795L627.0917793309982,898.7202444612392L624.8674237284649,900.0593423548578L622.2500983374407,901.4683890252074L618.91561416888,902.6134347870568L616.247114409474,902.6685927092988L612.4365014388192,903.8170922809733L609.5767016989071,904.5492345703991L606.2961851423591,906.1012066742983L603.3196363737815,906.8334182090923L600.006188151328,907.7258212655006L597.5503292494341,908.8829040452154L596.7566432987308,910.0092758063552L596.8623626023593,911.3593112051853L593.5390189134762,912.3412826379997L590.6037626116037,913.4027660085189L587.7623852551434,914.3840323865038L585.0005277594946,915.41237926549L582.538438487533,916.5069188197506L575.7417610771361,916.2376019163526L574.6734096434869,915.8934559948709L572.8733734505481,915.2139861487519L573.880507766839,913.9424851712718L573.8532109192809,912.6888013931496L571.6631001868116,912.3135181719822L569.3302460079309,913.4164993695335L567.7783397983794,912.7365559301511L567.084050753519,911.7275246755227L566.075356035534,910.6884210689448L563.0204948843996,910.9014872107521L560.2104615500772,911.7549154449385L558.6300206299993,913.0288739978062L559.2216283282582,914.141504274498L560.1473666684948,915.0255809215165L560.2875433716605,915.9964002128851L560.1249334250098,916.9981461202575L561.0277362611674,917.7607200499832L561.8077877858415,918.9597404445044L560.6873834963427,919.6514017387966L558.0491773377001,920.6816362009134L556.0097014142757,921.6881759794746L554.012148080414,922.7579865830683L554.1699759558413,923.7591423401586L554.7262559787573,924.5630436437077L554.1903617602712,925.666298422328L552.3615825236478,926.8170121034027L550.6386895755853,927.7545988843144L550.1358921314029,928.6611975485675L549.0489836240616,929.3409871122287L547.3955210203599,930.1053109187408L544.1573027880468,930.6737906908866L541.7555569045089,931.437422311292L539.1250241309297,932.25960589641L535.6456190452948,932.8629830868877L534.1038729424861,933.7210079243405L534.0828203270357,935.0130658505842L532.2727723140517,934.8284481330621L529.7291267757766,934.3754460420937L526.6941502303301,934.5181890380761L523.5671878588525,934.8730127302028L520.8103162839827,935.5257456507502L517.483477391886,935.850208430616L514.5060279551628,936.2046541019809L512.6920032313755,936.6149273069153L509.9430206078985,936.8227850976059L507.23946812628935,936.7088119446504L504.5803772826254,937.2295319246318L501.15778037418863,937.5332638140478L498.37375765563405,938.003224477153L494.9286079310224,937.9886895077763L493.05132710826274,938.7022732114374L491.6309848751534,939.3599501076152L489.5327992039024,939.9304023028424L485.67376583081693,941.285481852291L483.4217992319369,941.1322955641863L480.75816307268303,940.7477150847027L478.4624319822909,940.1985979367967L474.23946002997275,939.1726142939162L471.06262464178656,939.1136329950053L468.0730998857709,939.0631141089091L464.5331409601007,939.1759635697837L460.95244538923765,939.2796053260419L458.072296163416,939.6148531461254L455.5889261975114,939.9745411539955L451.832655809787,939.7977180429837L449.13224073129425,939.9551407058541L446.71764009823687,939.4303208462494L445.4001533173132,938.7780345672107L443.4872221482302,938.044835544458L439.88830752369114,937.7401363519697L438.06734961875543,937.0708584935469L434.6942942544905,936.1761231887699L430.95208854837455,935.4777319546986L427.5785355847253,935.1314962256308L424.49862648024555,935.2500885821939L421.7424824019615,935.3892899461308L418.72600783839096,935.009759384984L416.20427409877846,934.2798603289366L413.21954560323195,933.5027705917599L409.9080623324764,933.1313270790791L407.1301837102078,932.5275462183755L404.70314453799244,931.774422507044L402.194917925148,930.9719416987457L398.951122540681,930.5360143829871L395.21614132490515,929.8958530055916L392.03430690542945,929.1083943107833L388.6511823299802,928.1365444017599L385.596990945489,927.4384522691014L382.6613851802378,926.6983427930181L380.05417936915944,926.9677661042501L378.42593800968484,927.3439619513094L377.5626970438638,926.4604494722887L378.73689118201423,925.8285693560933L379.3508627897059,925.0659117181891L379.4563662896748,924.2993649616947L377.80652226157997,923.2816396419156L374.444683956464,922.214469665911L370.785714432257,920.8777436771209L368.1101938326193,919.9769455952378L364.6292500520183,918.5404481100431L362.07374914560296,917.4939994803384L358.8750217892099,915.9476124551061L356.42411251182614,914.5660741354737L356.2174474711411,913.4843900787805L358.5284101339381,913.422863234882L358.44270153260516,912.4256553448232L357.12234483680123,910.9618970954816L355.9141231041095,909.4267704234323L353.9913644032775,907.7246510090749L351.9499625476019,905.9531235714323L350.70545413437804,904.5785360943794L348.5161459204155,903.1313423054152L345.29770520328475,902.4717859066425L345.14026289391137,901.1835474753624L345.5156841427347,900.0361147692677L345.2724228411266,898.7740348126379L343.66761051539106,897.134828952444L342.35744200817805,895.5536336745129L343.97830776315334,894.7684818217311L343.59477763976497,893.184679770618L344.6438647846201,892.0691079025364L343.96134578309403,890.5536445830819L342.1200449782135,889.0190799690184L340.974653565385,887.5612989239416L339.1842854840218,885.9353038024637L338.1358597607068,884.2920326246542L337.65869046690034,882.759107508482L338.03782837994265,881.3555255458357L338.2135970285834,879.9538916145309L339.5178489064666,879.0517443370408L342.4511684773426,879.2827048901167L345.5354655540184,880.0253538845491L349.2287840758405,880.6217506853359L352.1236682049495,881.049841013891L355.5462297454519,881.577931113419L358.05546939939984,883.1067882834715L361.16173961552914,883.6787853628509L364.07992449241596,885.0586853166517L367.29271039610546,885.3521033601351L370.60761413214755,885.8590974028673L373.5437924315146,886.3927343220923L376.79714259547876,886.4887850986665L379.59956712039263,886.4175178080482L382.7674001567362,886.1004942088942L385.2820648660174,885.719349313116L387.41606274667913,884.8186784903419L389.77764581330314,884.251128671587L391.7929111664913,883.4873654700759L391.1698826311652,881.7831065091593L393.91761085733924,881.0494370359856L396.4696790345255,882.3398214860174L399.221296677389,883.2765551181899L401.11299426123173,884.6612066304572L405.65432495012334,884.4527518214069L408.9430741469283,883.8504418037099L411.767253589075,883.5307493885074L414.648606751234,883.2323635479006L415.8702609134603,881.8638994957992L418.3047301846049,880.8700599689024L420.2680002160042,879.7599441352359L421.82886038929297,878.5434703849896L423.25291917959726,877.3010033861929L424.70250431819676,876.040510919519L425.9085416719119,874.4394486478536L429.29186645175565,873.5144707560383L429.83831920727647,871.9104428819703L430.34876981890966,871.7319393466901L432.35285623896357,871.0481340959346L429.5603983800789,870.0923324968805L431.41187274598377,868.7902548849277ZM505.7578208528396,626.9227741469404L511.5325800339706,632.0617240345671L517.9486952587349,634.5605369643768L515.3124848609734,638.2605439430708L510.81622251718164,638.2761884060092L508.73276507346054,635.3625192413734L506.84147088053294,638.3971025660511L502.6050544011969,640.5435614205536L497.6186909862616,639.3887927196131L494.3600813110323,636.9048719537542L489.46560819400884,635.5918014989674L483.6054852202744,631.0807727934275L478.74979300526564,626.8095648179847L471.94496355202875,617.9739696184716L476.06831872606153,619.624027787223L482.9388423687439,624.9571631362361L489.3272850322306,627.9251938267613L492.012834007496,624.4037525107807L493.9037298883393,619.0615342131623L498.7201025103688,615.9969692036012L502.22831736022295,617.1164705001329L503.8291829910468,620.8817435376521ZM554.7320830514352,610.4335843250678L557.9155497122333,614.6128158325735L555.8072985223309,617.1003055358256L548.6518033517656,618.3864944810051L546.999173388265,615.3155104938131L542.093383647481,618.2443584796198L540.2774910236878,614.380424080451L547.1928464491922,610.5042090618161L551.044255244819,613.1056181599251ZM654.0914364172354,914.9054920467586L660.475439081775,912.1696341784059L662.610045430923,911.3306663550717L663.5321310808312,910.9707481433263L664.002351436533,910.7760821748172L660.0066430789477,912.4850796478531L655.3757076330058,914.4192979793745L654.5437239803827,914.756389944095ZM144.42730496968989,809.6915669307674L145.95378793570103,810.5362316779756L142.22141325677615,806.5798376621237L143.6858626276969,807.267366790045L145.83945461848322,808.9050129232403L149.07825327532703,811.9072984417883L154.42163233955193,816.8000890369331L157.73190867516837,819.9167203033012L159.389749464754,820.4644974971824L161.27026694777146,822.953047083013L165.33852259134107,826.9698787823211L169.46724866352616,830.0461208337197L176.26390305900696,835.1081930577179L180.6357204643773,838.8919196432566L183.43596276650993,841.2508680886986L185.70592792084756,843.884548704185L185.69101932091252,844.7792402401244L188.3130947527619,847.7247530412545L186.87001469218706,847.1014923733228L181.52398509472135,843.246372640928L172.95236304797652,836.2936413805849L170.22766536186452,833.6942585502201L166.3429681838565,830.1708054173807L161.4044196948958,825.6495173561743L157.21121421740287,821.8783371649846L152.30316439660334,817.7028226703911L150.06723317853152,815.5101389993642L146.90410246149372,812.8982254134326L142.85359401162026,808.7671303362556ZM117.76423913558631,784.3335212127788L120.90202980741475,786.3554720378926L117.68426269349567,783.2898022710888L117.8991538788452,782.8619685268916L121.12483867840831,785.6582832428073L120.90481640002793,784.197113830832L119.86684299231791,782.1314423921235L116.85631359887958,778.390295148306L116.40733018504585,777.0763959008831L121.21100930229824,781.8700560962353L124.70799750021195,785.4944145227912L126.15241348478537,788.0994601688105L128.2105482585199,790.3228636306239L130.16795591900132,791.8074634503296L131.4106888985878,793.0987386104634L134.93347780430713,796.6342723407433L139.4794377700308,801.0976199910752L143.19813760397483,805.2750343826065L142.22985500345402,804.8226715355673L142.42962441880405,805.6579877989243L136.9694084782289,800.4265617815906L134.95141129611238,799.3043027006577L135.5098837164578,801.3663772202704L133.67727087612212,799.7863779942629L130.2615294432685,795.8372432414628L126.16635904267065,791.9960978102973L123.22169904692441,789.3875833373583L121.09053628506899,787.9252931278311L120.21068454029239,787.0523251748389L119.51943621533155,786.9544044597609L117.58744055367146,785.8605022331917L115.62601285481918,784.2190137881689L114.28510620238319,782.5076665213794L115.27723768760393,783.0337484363852L114.44736311047836,781.3726324428479ZM581.1218830435535,143.65778090779588L574.5059488115363,143.43418332147297L573.0422998009115,142.73058906819438L575.281056516039,141.4153219463215L574.9805947197175,139.1095690152834L579.5123635573544,138.9524657462336L581.1809573376702,139.37923496327318ZM541.3908013838101,95.76568079564026L539.4920884107289,96.84673539367657L533.6119818574402,96.34576399773368L529.0317899930812,96.18882772474893L528.4495312312908,94.0405070595989L529.5280874704165,93.40413672444436L535.9009184840683,93.90497836299204L539.9135181498368,94.66180684800696ZM452.52739988486945,95.02400132090867L450.12126515042144,95.93053206123176L445.7201541404551,95.28325700970152L441.28432371892376,93.66370671180613L442.28881306466235,92.4992772507905L445.57693888954213,92.02841747030374L447.37898782222356,92.12784185740463L452.6521379339971,92.39789813751156L456.78566338066037,93.47231065626102L458.06299042853067,94.79192817873627ZM486.4939855809425,85.07475712808719L493.272711820411,85.95156489154778L494.2064998832846,85.16403161191352L500.29002687440914,85.36345055534588L504.9604604966762,86.75096569700224L507.0026620743282,86.7121716832591L508.47728327457486,88.46394818555876L512.7411552538374,88.57112433565419L512.5563532592319,89.99509633317842L516.050583016532,90.3442301959679L519.9692961051619,92.34403591870489L517.1690250675384,94.17614202262047L513.3935311704563,92.91675145832124L509.81785150122124,92.95564294275158L507.2104974140766,92.61097804282122L505.8304887868359,93.44412647268211L502.8423187996114,93.63991215337415L501.5878345164208,92.39844453599858L499.0069465135757,93.02072422092834L495.946235765863,96.33056311333019L493.91159592537076,95.48512985211875L493.4839992681015,94.04708853132917L488.2246422255234,93.10477469738771L484.5157641337518,93.39289484000511L479.7213548680968,92.99030321142004L476.0371127399781,93.89599135306753L471.81426929890654,92.36637074338103L472.49885416639734,90.79023836376712L479.7412295494115,91.47831829305079L485.68804132318525,91.9266225547633L488.5006674840202,90.88683244271209L484.88532731485503,88.7317076209535L484.91851148966623,86.89588747620832L479.9905297696895,86.10585829021045L481.7215035275276,84.81036047881179ZM432.0696908008563,73.01539772648965L434.9772833678925,74.46308859269374L442.1532382848645,73.62444150806482L444.79755504058045,74.54756319593906L451.1717152528581,77.09424676341462L455.9057365438204,79.01425046805645L458.4650177709915,78.89279214154601L463.0368508002981,79.73839174465144L462.4562865936077,81.05115258788578L468.1750969555493,81.16718973345525L474.0354288040911,83.0456466154057L473.1087839438422,84.14445778827417L467.9166171032951,84.77359656709541L462.6670111918394,85.07168176063738L457.317827605619,84.80769131836126L446.1502068269893,85.60046842733306L451.44646227134535,82.80412708543969L448.3362535957716,81.69390826785354L443.36250466620254,81.57743252085288L440.7564654201619,80.35634304328369L439.0630859796876,77.8443970576987L434.71177234740566,78.2382719246599L427.6467543700802,77.43359461144576L425.4342982067694,76.63626818099937L415.5619288472128,76.66362587982786L412.99348692861463,76.00980932721046L415.9431549157787,74.671106144909L408.5252351161856,75.06945533387812L402.84472397180934,77.88118125803362L399.7039209259107,78.24987155514776L398.4831869655201,79.45673019839671L394.6611370591847,80.34741647220375L391.5035965420916,80.26960856252504L395.6508877378826,78.44361201728458L397.48330766592176,76.66532199546958L401.0233735330534,75.3383105270434L404.9787352157228,74.10436641495471L410.7254238195426,73.17770614525227L412.5968008416621,72.54418829746163L419.0906368452665,72.33780371912508L425.0532060031715,71.96830068710193ZM448.5892808050252,67.96695380908977L446.7248238427684,68.2439262791832L444.95097308466643,65.88121096726559L442.20454519546684,64.78968941846523L443.9884151648991,62.1026845761682L446.2419725814975,62.17054780355011L448.6812917171967,65.51372763501729ZM447.0892145631435,56.51310581896547L438.97450292484933,57.495435145348665L438.5866988263916,56.07138156505886L442.0616615469756,55.59897301434927L446.9400378616541,55.513167368839106ZM453.16619642841806,56.267411376441146L451.7451780616485,59.11576966818518L450.40438787052506,58.65372708455641L450.62157942011874,56.58541898123434L447.41285400747677,55.16186746151624L447.41411306150286,54.72538795321998ZM533.9035549975445,7.868809593160961L538.1318813204872,8.482753843442879L543.2783542509605,9.062074539803064L541.011236634183,9.256266037661135L539.0136047528102,9.100163806096361L531.3791882477126,7.7851714245297785L529.640950921742,7.236680002513424L531.4306693337969,7.084198167126431ZM540.9579904402403,6.336406046927436L538.4016738931826,6.0356918005294915L531.1380027012235,4.985450267039937L525.7091400031397,4.1145769427564005L527.4389620680918,4.232985501370365L534.6372986426392,5.166956524249997L540.5624815906691,6.157461612933616ZM567.5910983925386,9.591997214627952L565.9291922829368,9.689488841591526L568.5946202312891,10.009712768057398L572.4229552776701,10.84080680474392L571.3269436089772,10.808924741652561L576.4200736926713,11.955800016555429L578.2555117936668,12.196887817138816L583.9738946540359,13.567619400886088L583.9892210905575,14.00703813462735L587.1985824196422,14.59707407299544L589.043099762752,15.350161987659305L592.0321598259268,16.473772784955088L591.7479986690179,17.1487448115804L589.4322917422819,16.675462069922787L585.5263190458546,15.671529384904545L584.9661098509848,14.856311726175704L583.2464349573363,14.396054065028466L578.8384555849399,14.24833377909539L575.5579014876126,13.585840189271437L578.4322949570796,13.71882629789684L572.8541669832762,12.447049933253709L567.2351945696597,11.488043189402276L556.7431302725191,9.74938245773319L555.4469990128661,9.292118640977094L558.2201162768827,9.428381954116503L555.4685275321393,8.789377870995224L558.9162966153049,8.902139274882416L561.3972524388752,8.46396341204644L563.4147859688062,8.615223734418691L567.000505381731,9.182674861327143L569.3593302227766,9.647333098919148L568.9657679670006,9.641694110322874ZM883.7424902133798,716.9805295765863L884.4070899172872,715.8028076344251L885.333192232353,713.8134866563279L885.0172031425147,714.0358296281182L883.3743029150354,716.6934444908185L882.586320269394,718.1152116130298L880.9115769645023,720.6201526965681L878.8153737532966,723.5146301617721L875.9677797948966,727.4840824962276L874.7838885390015,728.8307627637738L874.1940200817859,728.7357847457693L873.9992639830324,728.7200873509215L872.7896127712032,729.681999815175L871.2321619009072,731.2548011272294L869.2899267926757,732.7189627481948L866.7979708170858,733.563135940751L865.2669004435547,733.8698279151888L864.3336349968667,733.2481436720357L863.9789116312911,731.1272330265963L864.3632348002926,729.404583579007L863.2554032913118,730.3289890947839L864.6274681227751,727.1704841648485L864.2876458311212,726.212186728216L866.2324811735798,720.9347751593095L866.2064698089382,719.1901011373676L866.7863165441477,717.2766304385615L865.7185735401195,715.3087598459988L865.5060211311286,712.7813839734424L864.058895233096,712.3820171514514L864.1584975572405,710.7140273683542L866.0036671378242,707.1363970340703L866.2150503635888,705.699708879712L868.4351445118953,701.5467992439392L867.8049568278166,702.1228901380306L869.0892958469353,700.1146708986764L871.7700665256991,696.9052725181084L874.874162703356,691.8636505351412L875.604672804353,692.1326645394428L878.9816974518294,687.7121239807831L883.1561229633729,679.6904908611364L886.7876511740949,672.7171305538925L886.7951442456442,672.6923227873756L892.1247010932914,662.0630577342126L895.0843476351149,654.4158716546284L897.8520823469892,648.358242933645L901.4403387551208,641.4848967647893L904.0149724073788,635.9865238567866L909.2730136217585,624.9838090060498L913.183065189316,617.3749507647216L914.8755253486904,613.3797446251673L916.0486196121697,609.0462635740548L918.3740993242702,601.4577148668968L921.6080763970465,591.394742130294L923.2358530586569,586.3559610793351L925.3893633831474,576.3072976194157L927.2800185681598,571.0059614366999L928.7457349678017,566.4394575331592L930.8564749421845,561.2752891660994L933.0519361847402,556.8147617027796L933.9808681415954,554.2167767847773L935.9470245639388,549.7450538319287L936.8438128672349,548.1179173149961L938.2790519794414,546.4450710664172L939.1753345651402,544.9992865232045L940.4507306982082,540.5496701422579L941.3309471980258,536.51083687594L941.7701942388421,532.7160555913472L942.5453882024281,527.4008225955915L943.2606048480015,522.2116218408117L943.5533637362912,521.0792550146936L944.1802810398606,519.8534327157599L945.1790414995264,511.92673112658485L945.7886628195193,506.4330743491135L946.1423132774474,499.78038570711726L946.3655556057643,498.9101104335771L946.556308181159,496.1483701873375L946.9932295512741,489.79642473640666L947.1560803224263,478.7106821101693L946.866588225319,466.9853646547648L946.5767602651017,458.23167746232343L946.2171600572001,448.33992625173113L946.295549262295,446.2470690938488L946.5461369137166,445.1259895804957L946.7921566204017,441.35033022201776L946.9149186218569,437.30049287567175L946.714171067726,435.3805868284366L946.7589698765992,429.45689680035963L946.5837984236632,424.8207367339263L945.9051002429687,418.53547999452405L945.3664242331365,415.22818017925556L944.8947708675121,411.264827848644L944.534022714628,409.08984843448025L944.3623748394025,407.294796774985L943.4078589158892,404.7836346681329L942.9022597973328,402.63567549780987L942.5409093570238,402.3230402670184L941.4201175656497,398.40981960382595L940.2188059442574,391.7087416812679L939.175796776323,385.36352744866787L937.477703233661,377.6706261664833L936.2007756524337,374.2536724338616L934.5871003217482,370.14480908604446L933.0831684974155,367.09877306529467L931.6004206017806,364.7848489928416L928.5616409323028,361.4441576462148L927.4895946958384,361.1816374041083L925.4525802103963,358.99686278143696L922.9405897284469,353.0696874977277L921.727113481785,351.10034800936035L919.6560623364114,346.6644159729269L917.8308653930405,343.8730630985667L914.4151650035349,339.7485600030807L912.4400089809446,338.5700484302349L909.468002140747,336.637249132251L908.810952452691,335.6180595803656L907.9394589377039,334.5246263509937L904.1310458929518,326.90382113967127L900.3994525338713,318.00402633642443L896.8680038395821,310.7966904403379L893.8101405845237,303.7651648078769L892.7180998338275,302.14499398359374L889.5731439227293,296.52880570917614L887.0212754210702,290.941161023669L885.9514096439158,287.87758648103954L884.6680832181712,282.67916664028826L882.2209978820174,277.1469795187752L880.1652940603433,273.09267389246475L878.957662685912,271.24569925451226L877.6809169672598,268.9898561403833L876.631940095546,265.7787783696212L875.7249742938827,263.8197334840887L874.2981058410766,261.6438318879963L871.4518697049887,256.92003583293484L869.5548596342162,254.83470502788322L868.1762742114183,252.21692996297725L867.971971952951,251.3031305085702L866.3485207367677,248.82054558850984L865.7464927724359,247.26210372179582L863.8409393039019,241.9915540963282L863.6906748818984,239.84749240130614L860.5731515091362,233.60924716131677L857.764515989833,229.59134055656608L859.3638188364929,230.17949189276985L860.1710669499611,227.95049097611232L860.2059352506869,225.88922386674972L858.7738259459588,222.45247906441784L858.9619507241765,220.72052116774165L857.4717551021504,215.8453752344525L854.8107669058982,209.90695449872197L853.1441260554284,206.68470354798944L852.3758527768188,204.32586964026217L850.140277215841,200.74889275764593L846.8687495803623,196.4355121068112L845.9902205650419,194.3377102704377L844.9957539111392,192.0430978990414L845.8688132310242,192.02552482822102L845.8211090958832,190.50196164689396L844.6353293626094,188.48588412139134L844.0668644523507,186.10464936844016L844.4539783943405,184.90466034682157L845.291397344559,185.32927966394277L844.5829763896782,183.3503772625425L843.0383663828379,180.73213832876513L842.4739059000372,178.96930322324317L843.7821316200658,179.6197444757629L842.7290299790446,176.93882879028757L843.2123095016282,176.9139166163789L846.0395966781402,179.8438959570762L846.2707724827649,179.45548243442863L846.9356729414036,180.0271662026081L846.5052120654393,179.10993021708066L841.0000669737879,172.23747089925928L840.3776499540952,171.48035827310497L840.3779534735543,171.48072365090678L870.102778343181,211.33582999296397L895.498774492708,254.07969615689294L916.2876980738672,299.2440114002727L932.2417812895414,346.3339460340562L943.1862278654132,394.8335728801934L949.0011281545248,444.2115198777586L949.6227728924625,493.9267919064467L945.0443512093898,543.4346980423219L935.3160252513629,592.1928193055642L920.544380593361,639.6669515163208L900.8912584654224,685.3369581474894ZM434.77317327407565,1.7064310477455251L434.57498786562525,1.72410949349171L435.113681894579,1.7693867780823211L437.7242466505062,1.8435154926974633L444.6234370890207,1.7694340223571885L448.79312614317075,1.3885456237436529L452.10068004672945,0.8500968522320136L450.4084518590546,0.6503530799150781L448.05185272477263,0.7650399238446539L448.0523269597459,0.7650129759344964L497.77100355362313,0.5461230033409379L547.240196267428,5.525448992979534L564.1965606478125,8.449923836035452L566.8575179888301,9.050871224202183L564.0827368871197,8.604240482937087L561.2361353313,8.18614359822186L553.652125238282,7.042929352977751L548.5968320932614,6.655348683507725L540.0830611079657,5.593135121712578L528.6878279800832,4.159284686522881L520.8379712650582,3.40078208648589L515.4809000989131,2.9976659721787655L511.60768915683354,3.191007226189697L505.05682273394274,3.116878521798128L497.8302856378529,3.9469121135684304L491.7091990808804,4.707411549885478L496.4546726634692,4.685904031215159L504.7481486190482,3.752454790847821L515.5706781293624,3.7601164183382707L523.5119097101899,4.350278277181758L528.7487325965893,5.232814750130331L524.3088943195744,5.383243613725028L527.1020865566134,6.705268417032244L529.6866839940155,7.795026011597429L537.5821559244583,9.216702432530212L546.7561694891959,10.140405068300367L550.8027126615904,9.450974506679927L552.208017946042,10.415683468376642L556.3442626818724,11.418702068006894L550.2767796241881,11.36067745585217L538.2887661781147,10.686305611626665L532.9252623026208,10.69493448530983L527.0122028451308,11.224236039345726L522.4368803024984,10.721685695377232L521.5319775236829,9.381176071935386L530.8912540935205,9.082057776614306L521.685379839438,8.297737600457253L515.3353782207539,7.9792081871433425L516.5757616604595,8.517809747506647L510.64471487040424,8.817739438968431L504.74009494519856,9.006265681562013L498.5834937009977,9.18750771593767L495.3769846118263,10.128170051362247L494.6675929509694,10.383198452193596L494.7694456365575,11.302837867863559L496.9782898090954,12.334299679115361L499.54091641683556,12.478584954695634L498.7602771956112,11.78324174843749L500.6818872829378,12.261895251830992L500.3072562228604,12.773223015854398L496.1760156996013,12.921412524249206L493.20079192408565,12.787757035340633L488.6596915985639,13.004670919719672L485.957319794805,13.044850694361514L482.3300419219635,13.0856194918357L477.154314978281,13.610180014439095L486.31965583116715,13.342340514353737L488.2001825843139,13.750184129508455L479.4517043559891,14.222239647188303L475.442698314827,14.209910428368289L475.6227663891169,13.965842003143052L473.71824592368296,14.526163530937708L475.5803458811355,14.618237879308083L474.2089034168661,16.1191578443827L469.4878964135964,17.832922217222745L469.04541539052195,17.263057794480062L467.6402457308634,17.161864098691524L465.57123932643793,16.64496292406386L466.8210890965017,17.815864291124967L468.3356683195102,18.203371578056647L468.487772328274,19.06475687304919L466.36057389538365,20.004392747356235L462.53722234362783,22.00875314620697L461.95040532530834,21.919330603380388L464.09247982713424,20.224058282398232L460.82637397459126,19.384813196032155L460.2267899876659,17.511586935544926L458.90350665665557,18.513379688542273L460.1463685894953,19.95675966151839L456.0782131334886,19.712539189812617L460.3009474755447,20.347506210675647L460.39882899502044,22.6799686240837L462.269876307565,22.816243007068465L462.9074355603526,23.68609525972232L463.69933814936564,26.319629275542127L459.2852817163908,28.46333748237066L452.1549763134346,29.50661140093314L447.49777621461,31.373317308057835L444.0416620107171,31.71060038694509L440.41184658199427,32.97303704406812L439.30727912862557,34.04300389736602L431.4073341781776,36.49020906273046L427.231757400943,38.26160213224409L423.6138922794222,40.4286437189823L422.1349442515851,42.87768485470019L423.03855899937207,45.16917346486889L424.97514288193884,48.016865760153394L427.86495451767195,50.366751538678784L427.6991578609997,51.96977332364031L430.6922124540192,56.161568007767585L430.19155297521206,58.817562470697624L429.72214193389067,60.38996024326235L427.6387843180942,62.982135199422544L425.3608868226387,63.641863247268645L421.73667036624875,63.40502195975L420.75543772428097,61.70760581152547L418.038039325525,60.99468970397868L414.57792053387806,57.902688997532096L411.6111905154829,55.23968102038606L410.7426630498285,53.85600552164732L412.6188439857599,51.25039178459133L410.96288226515065,49.42386208029046L405.9507735552969,46.97574619916122L403.31013976219873,46.71352904749614L395.8161482669102,49.08610640765153L394.60958258222405,49.04783835690216L391.57164937971004,47.80530907791746L387.40079739052,47.48637436864999L379.39844685714417,48.97279680967296L373.3350338515638,49.468075349619426L367.9808680802322,50.514202020341486L364.89172653752786,51.47338761751979L365.9257844955384,52.254030658625425L365.3587028481411,53.730922256388L366.6265878003503,54.21505910489856L365.15596155174006,54.90024026344645L362.73123277925583,54.77868461791314L359.91560959044557,55.90089344045873L354.90033602920414,56.65197861233628L350.3972805298585,55.64174166794072L344.2672711842446,57.218513154568484L339.6153789896797,57.352831457680736L335.29177477660164,58.47535602419822L329.26284813815676,60.54351959931745L322.03194590783875,64.68458598162886L314.6823958296355,67.90465129899405L310.27073523242814,70.65868990646106L308.0579077172605,72.81789949427844L306.95704220759046,75.60847077423665L306.59849691503996,77.4914904403883L307.39292149795364,78.58370606104302L307.41522481982986,78.58466323569138L307.38811989273324,78.59779747374404L303.5101571727033,82.94089133139107L301.2957492571674,86.36115300109338L299.0096522536933,92.43364460746017L297.6987769541473,94.83195825013945L298.2269665071714,97.03475290496925L299.8203288824577,98.75879390451144L300.3442378076342,102.07258245117305L304.26433393518016,104.50424724849876L305.3508948578543,106.88849050314741L307.69984877844956,108.65494708033987L315.2123548844101,108.22453796431898L317.8519412383147,109.66157299903927L324.59979419914754,106.89963409915049L330.3573956129197,105.25771355367215L336.0905435674366,103.29687523771696L340.94039491747446,101.58597077099455L346.0105861488689,98.74852442619562L348.2794752699181,95.61448170743125L349.55307731094894,91.52555740566953L351.0806425538928,89.93674407087173L356.32894648141576,87.88910901754468L364.4020430962728,85.59549770898155L371.00362853675597,84.79983700036945L375.6297400632833,83.7876425475194L377.27424210224683,84.5221498492831L376.7115947344268,86.7871389652945L372.2647228831852,90.12013682019045L370.0630915200105,93.27411650993037L371.3451500671373,93.92003776216046L369.9196352240736,96.1718977265952L367.5352028608901,100.27687498812105L365.7451037130775,99.28258291754616L364.14247578009997,99.59806402708716L364.0749678986854,100.322783298388L365.52755841762973,100.13578223938873L365.21956996104785,101.50221601316997L363.71070067871636,103.85493184568264L364.2782825891651,104.53539400066444L363.26010886277487,106.47368686373221L363.7011957202849,106.88424158898982L362.5168727954544,109.61282073217302L360.8379410806847,111.20655590265551L359.432687437299,111.58228875748176L357.70445667718957,113.62545703407181L360.1005092534338,114.19609511737201L360.85195191233055,113.31467247536546L363.0629198745682,113.64375887206558L363.8496269085036,113.73074630288147L365.64558540045357,112.56323031575619L367.85618609209104,112.1817146867192L368.5390718327123,112.50619106179579L369.76592617802817,112.08381058398811L373.3284981206207,112.06882027430481L376.92942318698346,111.46256587314144L379.5076273670094,110.57087572959819L380.45876603988245,109.87779684925363L382.9340331799443,109.84956266841675L384.7594673421259,109.98419019942651L386.82502557962,109.62397687413448L388.41178452987714,108.99959012718051L391.93461834273546,109.33164523152675L393.1681965641345,109.31471521806998L395.49771545867037,110.0394698663074L397.6790751797331,110.98502540201332L400.48973903265096,111.51847991636646L402.47051990681007,112.77523013077683L401.7544874823687,113.35151217798517L401.28005332467546,114.58025633838452L401.9862707345722,116.46426295812824L400.0468766433877,118.48372689581169L399.0595194779331,120.74991353051308L398.6624565458662,123.20011797312446L399.0137815494561,124.58069536288883L399.08098789937094,127.06694755061767L397.8158429442208,127.7357302951886L396.9433601892432,130.2167644470603L397.4160270456023,131.6572715839231L395.7304812408557,133.27013814618124L396.00279900208227,134.77336896019835L397.20078783660125,135.59265952429632L399.08852910660175,138.53328982924245L402.1264323858718,140.58583568675562L405.8144887004155,142.7503174887745L408.65793425566363,144.62121954702548L408.4435884961712,145.8899844567049L411.67619976072194,145.89962182997425L412.4498383759982,145.35769290750284L414.65939462079945,146.64526191417286L418.6504658265426,145.9336936632053L422.17289624972193,144.19020343599112L427.1223110265026,142.69171961074716L429.945513622634,140.77734124698566L434.42202292878517,140.87747091060618L434.11709664122884,141.4697863938635L438.66100639256575,141.46170871928183L442.2858123907595,142.32466875331698L444.9058555115778,143.99642642950352L447.97547007346685,145.53959386780753L452.18679330730805,145.5919343689663L458.38024509836936,141.3049714774766L461.7399169855353,140.6148312824178L461.8410433128524,138.67612635334063L463.3714765836737,133.7369983095753L468.0454752563098,131.02084841193022L473.17087123289986,130.88651212607135L473.81603205410676,129.6978667221279L480.1973701037912,130.1862575864297L486.55739432993335,127.3901648655766L489.72926048876855,126.18282397227648L493.605382510358,123.56282956872349L496.46394445158194,123.97399762744976L498.6131197118418,125.51106962580121L497.066675260757,127.36155183178965L496.85170260856495,128.68612239872067L492.09651705114896,129.23363873776236L494.7875434003231,131.88263994499403L494.73375692114405,134.89119200676112L491.1555926605818,138.18608478361068L494.28531475315884,142.92445440735236L497.81428208514154,142.63537477683008L499.5869332298942,138.4380453660895L497.03730635388155,136.3139785302613L496.573210858184,131.9381645958279L506.6498047961552,129.94401191560854L505.4889496708949,127.23640267886373L508.27670793665925,125.57892575358312L511.2789731059796,129.66878491318454L516.9648694122527,130.03246509265847L522.2969260011423,133.51491671085267L522.6696045112277,135.43471102462115L529.9328782714181,135.95743954314088L538.5552613438956,136.00045787039875L543.2701814712169,138.970107339859L549.4821031451497,140.24207698340416L553.8975674701913,138.86243682770197L553.9487736619042,137.41410642365906L563.8571563198863,138.12059423099686L573.4191467983156,139.16542309623668L566.7319479862381,140.06493717783673L569.6045313974068,143.13821257815027L576.0093186413428,144.36315988163426L582.1856861388484,148.05707039572673L583.7150185120499,152.99952231453847L587.8382014393488,153.44715870410812L591.028922131568,155.31289124492736L596.3692608289203,158.31864048032753L601.4385430641753,163.05428952549192L601.8082190065536,166.25167659887273L604.8087871556132,166.88726265520097L609.1798773566383,170.63138270487786L612.3663082602732,173.33195750478728L621.8461154971125,176.31213219201135L622.6446529355426,175.33823343040638L628.9536367096987,176.11571734585976L637.3667003376041,179.51392415571945L640.0447366428616,180.7702370316681L645.7769690277472,183.50770237129967L654.123590999034,190.740547778704L655.4880311800638,193.66552066853745L658.0883301784829,193.98846295555984L660.1034956224846,198.01751299597777L664.625137026087,210.5120900489179L668.708970457833,212.63667443730952L668.9563945491903,217.28230906458975L663.3043825696254,221.37326080067564L665.6592581754687,224.0014743991124L678.9866866330406,228.57650161416845L679.2101808895793,235.49502809638454L684.9143660836633,232.59562182342583L694.1880581809962,237.76319211729182L706.2710331539181,245.7316594394442L709.7030278435775,250.91223827874373L708.4404465608495,254.36723867976525L716.8327617286541,255.017481379826L730.4369047433383,263.574930614908L740.7815073766303,267.2332000969306L750.6108717962702,277.0510912246711L758.7299099512179,288.5380981088999L763.6722235422515,292.7971439687913L769.2031193904481,295.5937325321454L771.3969166956541,298.9065981288644L772.8595368097674,308.9858409914125L773.5253568865655,313.8276328091322L769.7752700972787,324.587693941494L765.9633299107046,327.8215500455745L755.6156406324226,333.96714890539903L750.339781072887,340.5453583845275L744.5625236717747,344.9729061695881L742.9091136571193,344.4383833796153L740.2420538640838,349.1963899237417L738.4411385534513,363.5126812014178L734.5624015920175,374.4840981921194L732.9196494076806,379.2421249275755L730.2889319265779,381.44022895512126L727.1166152707125,391.2598191517846L718.4721508656605,398.80201610910393L715.6681168674075,406.40245312826164L709.7027777070639,407.83322877637454L707.1651969804337,411.97184176805297L700.0967579840202,409.437008370665L689.1023293916733,408.96618976218457L683.7227064769687,410.97427900862743L675.7778658596989,410.97346432283996L666.6234902757438,414.9479731434747L659.3835056734088,421.2361990924826L657.2152342549012,426.91983101711514L657.4295955391292,431.6330317864375L654.538525861996,439.38133341515356L652.2189448789891,442.8920931415565L646.6702046737971,446.0706863129699L636.4348002111151,458.3762349458704L629.3771444924605,463.37189243518606L624.1703593953905,466.1223586018911L619.6378939622687,473.1497462759671L614.4501535381208,476.83146697751033L610.6253369663623,481.33879756058616L602.510052435781,484.35652503151783L598.0598129171985,481.796820043151L594.3859038575175,482.00137945251424L588.989841636509,477.4195917453808L584.4884724095657,476.9153489935171L581.1840304807989,471.72303122481645L580.0796925195848,475.9193981366026L587.2496078522629,484.31979332622933L585.4052165056248,489.80907101837767L588.7670723129913,494.0654506160229L587.7274869463183,497.9986949116766L579.8097881404356,507.3982992422583L569.791513280599,510.287460490454L556.9573278962673,510.2037622653651L550.143183727732,508.51397184878545L550.8416251420794,513.5658508730517L548.7487714271191,519.5453669941625L549.327738607734,523.8142248781551L545.2507619773843,526.2581390324495L538.8347659068918,526.7034890042341L533.2456678021059,523.1120839321261L530.6153315413463,525.0428061201668L530.6203416326672,533.2704711768372L534.4459868726168,536.1299987982178L538.0604046128309,533.8925655916311L539.3147194235397,538.3303149976172L533.5040890199581,540.2922086775479L528.1467859600832,544.9146227639809L526.389832243118,553.0506007281856L524.5398612567167,557.2831807057531L519.065622843711,556.8652624504393L514.1495076565873,560.6957981486386L511.9853255405775,566.677875580372L517.0196473383792,573.0093274970341L522.1794683881488,575.066358103789L519.4810714319117,582.1517093295206L512.5844557798803,586.1967885349156L508.2623132270867,595.360351775984L503.16757100435035,598.2448852647726L500.7642454973084,601.8650063067635L501.82567643475244,610.2193633748519L504.8369788841626,614.9949892687391L502.7463490136125,614.4710099905288L498.2592357389323,614.1885888204024L495.7046695359244,616.0236382565735L491.04257944591023,618.7060655860607L489.903179632134,626.0399605649404L487.82013269707727,626.1666976099666L482.3707015567074,623.4958744676619L476.7587391373782,617.9409197443041L470.4616832612549,613.428304816274L468.785644655278,608.4171639800865L470.18789931774444,603.7351438185067L467.45509921092287,598.4503100158324L466.47812700666225,584.7653924896715L468.7057548726668,576.9645775280935L474.58315988473066,570.6566259398573L465.9360310149309,568.3640634371728L471.3053709983196,561.1103546251013L473.21139319384685,547.5158146563733L479.8048078030056,550.4158143174554L483.1681194350848,533.4482870581995L479.0854665693847,531.2200946196212L477.11640929044637,541.4787247946971L473.3155602327214,540.3239645638602L475.2123665715701,528.5582459093873L477.39219624935697,513.2705122419829L480.35064666561715,507.6354431665646L478.57365290105207,499.5552410761354L478.0813812347881,490.2157200249677L480.86670352795795,489.9682713032823L485.1187101761502,476.63464618725607L490.06949172274847,463.4657689094962L493.2982803154628,451.18775425457846L491.95872289258125,438.75773462105417L494.24420284464026,432.0049138812848L493.592464697581,421.79476255869616L498.1107233180574,411.8818021107946L499.84856228042725,396.0767041557474L502.6947533188484,379.2499633456416L505.5586811383806,361.27748653498384L505.3276962212175,348.14041861871885L503.9467874652316,336.87603699992235L496.1245926892714,332.0676164448803L495.4895323718254,328.8161098040089L479.8265225109409,320.67041269613827L465.51490436622873,312.16833035384656L459.31059529484844,307.46495244356885L455.92266316996773,301.14927199943514L457.23302932939345,298.9015030754217L450.2632411495898,289.0342910741082L442.0751982360079,275.3549709784629L434.1736561855882,260.85978952285177L430.7711016134914,257.67891175512386L428.1315546245329,252.42368192962408L421.69876522044115,248.05680044750062L415.82328820872897,245.5292173441309L418.4281915758906,242.11459655357203L414.3873554678065,235.56900932120757L416.8706038064947,230.40273998485998L423.36879646941094,225.50568008119893L427.72139949044447,219.99793284591095L425.9259161322185,217.06321804759438L422.8008964357992,220.49868933955472L417.86613904543685,217.77602357722265L419.51434026920424,215.70136790558047L418.09852286084515,209.54905840831884L420.97079023860863,208.32252126394303L422.5068421817295,203.97814867695394L425.62287333380505,199.42393290193684L425.03275812181204,196.72015506277603L429.57818264435576,195.02821442921783L435.23081449671383,192.0721864903456L434.13676765890494,190.0716514660686L437.20042316049023,189.43169335784262L436.85534022461593,186.14570674690367L438.79760301858005,183.68403387511245L442.9030180035927,183.0704113749112L446.4004024749149,178.85753102961013L449.5681590048289,175.3684047519372L446.54393726328135,173.93686584594735L448.11017486238165,170.1811703814289L446.3101656328908,164.47685423329585L448.07199650431676,162.77646720033653L446.8136183848681,157.57246055322878L443.53610637397435,154.42293168513527L440.811423916523,152.78003895015325L439.11674536975755,149.58603637015023L441.14342952852013,147.89141074678372L439.0881707081391,147.57403497754098L437.58991261101534,145.67012088233582L433.5647050247284,144.20658741106513L429.9756905963534,144.78009129446468L428.2889530750991,146.941015395048L424.9685502443183,148.6482737091137L423.1733321045029,148.9643718143488L422.35333967018045,150.26808176038094L426.1674191528217,153.3134483775102L423.9458665547676,154.2323785236136L422.7518737096437,155.2056176782948L418.92237667108793,155.77163358478168L417.59059487008307,152.23594061659668L416.51055366809874,153.3481325406641L413.81980126899504,153.1886135657432L412.23930878833545,150.87910529014204L408.9136207344311,150.74829056358175L406.8284997552281,150.22138923568195L403.3528161437872,150.5337778057276L403.08022610175027,151.85911743609938L402.17333176604404,151.0357194700494L397.8139898677322,150.1153007833522L396.22711627720537,149.0175666448185L397.19448889993055,147.88626905724072L396.92177408840445,146.60877120699507L394.7392420128467,145.40623436246847L391.6253386887536,144.57109837799362L388.9074754753243,144.1060940732521L388.43411978965014,142.44760390699406L386.3743435809055,141.64129009567125L386.8152346541801,143.2865743231133L385.16338435616206,144.86698847933377L383.39134384739145,143.44694053674385L380.85431251181666,143.17220317292822L379.82002213704527,142.1161376272505L379.96879975209623,140.34672452297616L381.10069429291775,138.39197214400116L378.9066219972484,137.85161783910246L380.80446812173165,136.52181677131165L378.1583941584304,135.05435608728646L374.58660255764346,133.23057942392882L372.97527599702346,131.54351503940535L369.77318342508187,130.22622979999437L365.99738044571234,128.25148078161806L366.94181406022653,127.26596824307842L368.17786390528244,127.92143769689238L368.80195321188444,127.45525502314996L367.58086496059866,125.91090580334549L365.2493456254741,125.75759777238886L364.2673095186097,127.18868607925117L359.7371331251956,127.76536136376814L356.97166018129633,127.65606196215094L353.84423006161376,127.06424648741529L349.56934439651394,127.40956133440568L347.4806640791927,126.59293066430956L343.62767212232166,126.30721758958487L338.8147222229176,127.0511403165367L335.42492128938613,126.60722525182166L331.58572138963814,125.13285099518373L323.7628871384526,121.05378942053972L320.1112021359292,120.13823655333294L314.236507107513,120.06432456763275L309.99946863689945,121.369510541372L303.73299526068854,124.72454300563538L299.9267709798911,126.12665362483472L294.9710911727915,125.98944171798496L289.67604064007423,126.36695679869615L283.33854613588153,125.7330049310342L278.10211121123604,126.46486608021667L270.555678068323,126.32530291182587L265.1949315369865,125.60670224701454L263.74937128185303,124.7660398145768L259.94017437500486,125.66219960065627L253.28582255907193,126.29398947063447L251.02848761391743,124.90659404229439L244.52843811571756,124.51345750807786L242.09660157910494,122.530897713162L241.2513291624409,120.68283756342493L243.61432898460754,119.42374819669402L243.35926276166796,118.27056944797266L245.28208389157584,116.47736653958361L245.84353223009575,114.80520945359444L244.35801987738637,113.43088439567606L244.41816712269105,111.75717780057704L243.06006047422954,110.18227208025337L239.1572732633617,107.67006182449893L234.24784787713358,106.54915290130509L232.43823583978892,104.95080399566262L227.99353038577956,105.26251736782496L227.3840584671972,104.64126940068434L229.60641027865123,101.57788302712413L227.01911045090975,101.85205487091184L224.56692863459375,101.25204537943574L224.6851739725556,98.9377885947024L221.72965804435023,99.96083002003701L219.59871221804565,99.26687664906848L218.1088172704388,98.46986050974255L218.63964783180262,97.31196022387331L217.54085329828212,95.66553510179074L217.5757443703843,93.57177136324185L218.7090916612235,92.0325036343549L215.84516468186416,92.38344050908137L213.91010115061118,93.4313755336513L211.61471364069894,93.88599084309573L209.6150274522892,95.87677688779007L209.15727960570854,97.31318978927709L207.62073012448582,100.04171028935417L208.38545480054677,100.78158581861305L210.6949051169005,101.6107196389454L211.0227151444186,102.14055763410727L211.69310699952467,102.03272110676096L211.58456230342233,103.10858564949564L212.6177561312898,102.58406528051131L212.18821906435642,104.76303284818647L213.33654973179534,105.0327795772514L213.72507224617613,105.9936440505515L216.20994797009553,106.5428381637542L216.0978296610973,109.76282458088576L216.93740897001862,110.93756447706738L217.61834436285665,112.327259608865L216.86278928588337,114.58355693927876L219.73001681665883,113.48894010096541L221.30363983047638,114.53847710920098L222.66773334665027,115.69189520665293L222.193397961669,116.5846757911296L218.8871021052322,119.39367757034722L217.80461736374394,119.82652179309707L217.3297822384929,117.66288266796255L214.46896805331306,116.72665852435563L211.13471777719298,116.40434864876408L208.63145922388304,116.61070628988432L210.41020742672623,113.21513644958617L210.72779119244717,111.20488000495425L208.66478432241132,111.10912270512796L205.74885136107866,111.00649995825307L204.68271874940746,111.93256426197178L203.8682971998242,111.479981529648L200.97810656157435,112.11791441722346L199.13110467693997,111.24241020509231L199.71848506538726,110.72196295931161L201.87931913373825,109.81621064700226L204.88980989441848,107.20454122082702L206.2326040327526,105.20956766676409L203.8411525671669,104.33868089631574L201.39108373384482,104.81494729885537L201.13222201844496,103.27974997641985L201.01478318882954,101.66476952492434L200.9028677310112,99.79404668123738L201.5015790414866,97.44424967536469L202.22949878986333,95.96194806545606L200.7841214175595,95.59640334955395L198.85117590533662,96.44886448059464L199.24543762855905,95.68938319738032L196.67168834528428,97.07163311255601L195.82306921554027,97.08990728213587L191.73326302401284,99.35668391683618L191.09477135091635,99.48278651486095L192.41315367204174,97.8219814611723L191.52653575072202,96.98231173448772L192.9824506731598,94.50350196923961L194.01855200528553,93.60991481894257L193.37091316846738,93.74871758504406L193.37667654809582,93.14695551911603L196.08333377970007,90.86967340061301L196.14930571865335,90.61980014438342L200.47303431337843,87.41969184620376L203.9536103571134,84.92527898146227L204.19991550384867,84.75352117299343L204.20030575046314,84.75325037310387L246.47566784349775,58.58478700649681L291.25479034142984,36.97865585393208L338.0470638075383,20.171578209690665L386.3398223018158,8.347695933550142Z"/>
  <path class="location" data-name="Red ;Bull Austria" fill="#a0a0a1"/>
  <path class="location" data-name="Red ;Bull Germany" fill="#a0a0a1"/>
  <path class="location" data-name="Red ;Bull Switzerland" fill="#a0a0a1"/>
  <path class="location" data-name="Red ;Bull France" fill="#a0a0a1"/>
  <path class="location" data-name="Red ;Bull UK" fill="#a0a0a1"/>
  <path class="location" data-name="Red ;Bull Italy" fill="#a0a0a1"/>
  <path class="location" data-name="Red ;Bull Spain" fill="#a0a0a1"/>
  <path class="location" data-name="Red ;Bull Portugal" fill="#a0a0a1"/>
  <path class="location" data-name="Red ;Bull Netherlands" fill="#a0a0a1"/>
  <path class="location" data-name="Red ;Bull Sweden" fill="#a0a0a1"/>
  <path class="location" data-name="Red ;Bull Denmark" fill="#a0a0a1"/>
  <path class="location" data-name="Red ;Bull Norway" fill="#a0a0a1"/>
  <path class="location" data-name="Red ;Bull Finland" fill="#a0a0a1"/>
  <path class="location" data-name="Red ;Bull
Czech Republic" fill="#a0a0a1"/>
  <path class="location" data-name="Red ;Bull Slovakia" fill="#a0a0a1"/>
  <path class="location" data-name="Red ;Bull Poland" fill="#a0a0a1"/>
  <path class="location" data-name="Red ;Bull Croatia" fill="#a0a0a1"/>
  <path class="location" data-name="Red ;Bull Turkey" fill="#a0a0a1"/>
  <path class="location" data-name="Red ;Bull Kazakhstan" fill="#a0a0a1"/>
  <path class="location" data-name="Red ;Bull
South Africa" fill="#a0a0a1"/>
  <path class="location" data-name="Red ;Bull Japan" fill="#a0a0a1" d="M868.8939679787663,700.9309439185413m0,2a2,2 0 1,1 0,-4a2,2 0 1,1 0,4z"/>
  <path class="location" data-name="Red ;Bull Australia" fill="#a0a0a1"/>
  <path class="location" data-name="Red ;Bull
New Zealand" fill="#a0a0a1"/>
  <path class="location" data-name="Red ;Bull Canada" fill="#a0a0a1" d="M120.67388354575786,786.9469520906177m0,2a2,2 0 1,1 0,-4a2,2 0 1,1 0,4z"/>
  <path class="location" data-name="Red ;Bull
North America" fill="#a0a0a1" d="M442.99406332572903,9.637618653618631m0,2a2,2 0 1,1 0,-4a2,2 0 1,1 0,4z"/>
  <path class="location" data-name="Red ;Bull Mexico" fill="#a0a0a1" d="M199.49402527632128,95.54421774100155m0,2a2,2 0 1,1 0,-4a2,2 0 1,1 0,4z"/>
  <path class="location" data-name="Red ;Bull Argentina" fill="#a0a0a1" d="M284.5630527431418,111.6195973730753m0,2a2,2 0 1,1 0,-4a2,2 0 1,1 0,4z"/>
  <path class="location" data-name="Red ;Bull Colombia" fill="#a0a0a1" d="M581.9511018078691,475.6656639030385m0,2a2,2 0 1,1 0,-4a2,2 0 1,1 0,4z"/>
  <path class="location" data-name="Red ;Bull Brazil" fill="#a0a0a1" d="M675.1202505871196,406.5108027858543m0,2a2,2 0 1,1 0,-4a2,2 0 1,1 0,4z"/>
  <path class="location" data-name="Red ;Bull Ukraine" fill="#a0a0a1"/>
  <path class="location" data-name="Red ;Bull Russia" fill="#a0a0a1"/>
  <path class="location" data-name="Red ;Bull India" fill="#a0a0a1"/>
  <path class="location is-active" data-name="Red ;Bull Global Headquarters" fill="#db0840" d="M475,169.67588539889385m0,2a2,2 0 1,1 0,-4a2,2 0 1,1 0,4z"/>
</svg>
