<svg xmlns="http://www.w3.org/2000/svg" width="60" height="87"><g fill="none"><path fill="#DB0840" stroke="#FFF" stroke-width="2" d="M30 1C13.98 1 1 13.796 1 29.573c0 3.531.382 6.712 1.19 9.872 1.337 5.23 3.87 10.598 8.453 18.117 1.996 3.275 4.38 6.968 7.834 12.173 1.563 2.355 8.607 12.887 10.557 15.819.183.277.5.446.841.446.341 0 .658-.169.839-.442-1.432 2.184 15.466-23.33 18.471-28.191 4.665-7.543 7.188-12.719 8.549-17.764.862-3.195 1.266-6.408 1.266-10.03C59 13.796 46.02 1 30 1z"></path><path fill="#FFF" d="M51.476 36.329c-.895-.512-1.251-1.473-1.803-2.23-.196-.273-.538-.457-.72-.73-.643-1.705-1.188-3.41-1.363-5.353a5.575 5.575 0 0 0-.503-1.432c-.81-1.276-1.859-2.442-2.865-3.615l-.287-.286-3.543-2.865a7.134 7.134 0 0 0-1.419-.736 3.668 3.668 0 0 0-2.488.088c-.762.396-1.447.962-2.25 1.228-1.16.512-2.474.614-3.474 1.487-.587.49-1.076 1.261-1.943 1.132a3.76 3.76 0 0 0-2.564.893c-.657.58-1.28 1.269-2.132 1.432-.748.307-1.656.157-2.418.437-1.202.293-2.167 1.227-3.187 1.943-1.027.58-2.013 1.207-3.299 1.18a2.207 2.207 0 0 1-1.908-1.411 2.318 2.318 0 0 1 .755-2.449c.762-.886 1.971-1.411 2.565-2.434a1.853 1.853 0 0 0-.147-1.924c-.796-.797-1.929-.825-2.956-1.07-.657-.178-1.167-.669-1.747-.975-.21.327-.308.716-.273 1.104a2.662 2.662 0 0 0 1.734 2.067c.524.218 1.118.061 1.656.17a.51.51 0 0 1 .314.368.58.58 0 0 1-.174.396c-.839.682-1.72 1.337-2.418 2.182-.748.785-.832 2.169-.44 3.158a3.473 3.473 0 0 0 2.802 2.025c.852.137 1.607-.088 2.39-.252a.277.277 0 0 1 .189.164c.076.668-.028 1.261.125 1.875.14.518.322 1.023.539 1.514a.65.65 0 0 1-.14.546c-.42.293-.874.545-1.356.743l-1.16.068-.224.102c-.433.498-.447 1.01-.713 1.569-.356.573-1.013.852-1.565 1.187-.171.29-.383.557-.63.79-.195.15-.432.24-.684.246-.398.45-.49 1.078-.594 1.691.657.062 1.342.41 1.985.062.552-.252.67-.907 1.083-1.303.328-.348.825-.088 1.216-.013.58.027 1-.382 1.489-.573.342-.218.622-.6.978-.819.692-.32 1.642-.143 2.362-.013.56.136 1.14.068 1.657-.157.46-.28.894-.634 1.411-.75.462-.232.692-.744.88-1.16.155-.395.539-.702.511-1.159-.119-.095-.259-.32-.433-.3-.224.3-.392.62-.643.92-1.076 1.433-1.93 1.57-4.117 1.57a5.159 5.159 0 0 0-4.207 1.67.213.213 0 0 1-.237-.048c0-.204.062-.416.181-.593.993-1.384 2.551-1.705 4.194-1.739a6.46 6.46 0 0 0 2.501-.587 3.74 3.74 0 0 0 1.79-1.895c.188-.914.265-1.91.503-2.783a.36.36 0 0 1 .321-.123c.126.014.23.09.28.198-.168.9-.468 1.964-.105 2.837.713.92 2.04.423 3.012.375.937-.054 1.873-.04 2.796.048.482-.014.838.102 1.209-.191a.814.814 0 0 0 .112-.552c-.028-.266-.252-.423 0-.641a.342.342 0 0 1 .356.054c.14.362.196.75.433 1.078a5.7 5.7 0 0 0 1.838 1.398c.63.423 1.146 1.016 1.188 1.76.007.381-.349.64-.65.818a3.11 3.11 0 0 1-1.656.388c-.79-.375-1-1.186-1.523-1.786-.266-.294-.671-.341-1.07-.321a6.1 6.1 0 0 0-1.258.19.403.403 0 0 0-.119.356c.273.477.567.94.867 1.418.35.205.825-.116 1.118.246.259.388.42.832.811 1.125a1.44 1.44 0 0 0 1.433.266 18.639 18.639 0 0 0 3.235-1.228h.35c.412-.04.874-.02 1.167-.327.322-.443.608-.914.853-1.398.251-.334.14-.839.028-1.207a6.844 6.844 0 0 1-1.063-1.998c-.251-.069-.475-.219-.761-.205-.133.061-.322.034-.399.177l1.181 2.271c.098.205.14.437.12.662-.154.494-.435.94-.819 1.296-.07.04-.167.081-.223-.014.133-.498.37-1.037.342-1.603l-1.153-2.025c-.14-.273-.37-.525-.356-.846a.37.37 0 0 1 .251-.307c.503-.157 1.118-.136 1.503-.525.51-.77.615-1.527.748-2.448a.355.355 0 0 1 .237-.17.322.322 0 0 1 .238.143 3.707 3.707 0 0 1-.657 2.81.24.24 0 0 0 .049.306c.566.17 1.167 0 1.642-.252a9.2 9.2 0 0 0 1.726-.218.2.2 0 0 1 .126.143c-.36.389-.6.868-.692 1.384-.447.457-1.083.853-1.132 1.5.077.328.364.021.56.055a.156.156 0 0 1 .139.17l-.44.642c-.238.375.042.818.042 1.173.14.286.454.463.775.443.678-.027 1.272-.28 1.866-.484a4.149 4.149 0 0 1 2.202-.15c.699-.041 1.223-.498 1.747-.948.28.034.545.17.727.395a3.887 3.887 0 0 0 3.033 1.173l.098-.054a.168.168 0 0 0-.042-.26l-.699-.354c-.49-.307-1.104-.71-1.272-1.248a6.477 6.477 0 0 0-.713-1.473c-.105-.232-.35-.423-.447-.655a.112.112 0 0 1 .105-.061c.769.259 1.237 1.01 1.593 1.678.573.77 1.391 1.432 2.46 1.254l.091-.075a.14.14 0 0 0 0-.177l-.538-.26h-.007z"></path></g></svg>