<svg xmlns="http://www.w3.org/2000/svg" fill="none" viewBox="0 0 53 20"><g clip-path="url(#a)"><path fill="#FC0" d="M26.26 20c5.523 0 10-4.477 10-10s-4.477-10-10-10-10 4.477-10 10 4.477 10 10 10Z"/><path fill="#FC0" d="M25.546 14.638c-.566-.318-.676-.948-.972-1.331-.12-.153-.322-.321-.375-.459-.51-1.303-.682-2.035-.862-3.308-.091-.652-.524-1.201-1.154-1.972-.275-.337-.667-.892-1.005-1.22-1.14-.959-1.753-1.492-2.511-2.003a2.97 2.97 0 0 0-.47-.26l-.003-.001-.007-.003c-.252-.111-.481-.142-.794-.16a2.688 2.688 0 0 0-.124-.003c-.565 0-1.103.205-1.645.624-.393.257-.846.401-1.284.54-.552.177-1.123.357-1.59.765-.084.06-.16.144-.235.224-.103.11-.174.234-.33.283-.134.031-.232.031-.34.04a3.933 3.933 0 0 0-.514.074c-.575.136-1.014.49-1.478.865l-.159.127c-.298.239-.817.456-1.108.464-.817.024-1.396.217-1.998.664-.62.476-1.287.965-2.022 1.266-.17.066-.353.1-.53.1-.19 0-.465-.042-.686-.245-.278-.257-.371-.754-.203-1.086.25-.492.759-.894 1.175-1.19.537-.405 1.055-.938.824-1.82-.248-.808-1.233-1.068-1.885-1.24a3.112 3.112 0 0 1-.438-.134 3.356 3.356 0 0 1-.49-.288 2.285 2.285 0 0 0-.437-.25.25.25 0 0 0-.081-.015c-.093 0-.166.044-.222.132-.235.41-.303.826-.206 1.235.152.669.812 1.278 1.5 1.385.07.017.148.023.224.031.07.007.144.014.211.027a7.985 7.985 0 0 0-1.241 1.197c-.504.593-.642 1.57-.322 2.273.276.704.98 1.276 1.711 1.39.144.028.3.041.476.041.254 0 .508-.027.754-.054l.179-.018c.025.557.044.904.354 1.694.019.05.005.135-.06.193-.054.048-.503.234-.632.26a.914.914 0 0 1-.166.013h-.087l-.098-.002c-.06 0-.14.002-.217.012-.284.04-.423.28-.522.509a6.21 6.21 0 0 0-.144.369c-.097.264-.156.426-.34.527 0 0-.385-.341-.45-.388a.574.574 0 0 0-.295-.082c-.243 0-.458.154-.664.302a4.174 4.174 0 0 1-.195.133.77.77 0 0 0-.344.49c-.282.141-.559.313-.687.596-.061.12-.073.268-.085.41a2.073 2.073 0 0 1-.024.202 1.28 1.28 0 0 1-.074.13c-.08.113-.149.271-.149.369 0 .208.077.285.192.384.142.1.522.216.797.285.02.005.04.008.061.008.083 0 .149-.042.213-.083.03-.019.063-.04.095-.055.226.053.558.124.881.124.166 0 .32-.018.455-.055.328-.089.609-.535.76-.774.036-.057.074-.116.084-.123a.077.077 0 0 1 .03-.005c.049 0 .13.023.217.048.1.03.216.062.32.07.37.034.724-.197.953-.368.094-.07.197-.167.296-.262.112-.105.226-.214.322-.28.129-.054.256-.077.41-.077.05 0 .106.003.167.007.266.055.616.12.957.12.34 0 .597-.058.822-.176l.207-.107c.225-.115.456-.233.674-.352.423-.229.593-.605.73-.908l.035-.076c.081-.175.205-.491.236-.57.066.008.133.013.204.013.23 0 .453-.047.67-.094.214-.045.435-.093.66-.093.116 0 .225.013.332.038.4.08.926.17 1.463.17.3 0 .578-.03.826-.088.062.06.13.111.198.162.066.049.13.096.185.15-.06.012-.123.019-.185.027-.188.02-.381.043-.523.194a1.212 1.212 0 0 0-.486-.088c-.19 0-.378.027-.561.054l-.22.03c-.286.034-.482.145-.584.33a.452.452 0 0 0-.008.457l.564.934c.07.122.184.219.264.224.043.003.099 0 .159-.005.048-.004.098-.008.145-.008.09 0 .144.014.164.045l.083.13c.115.183.234.37.415.529.272.238.712.338 1.127.242l.468-.169c.486-.175.99-.355 1.478-.563l.81-.115c.267-.053.47-.413.538-.562l.018-.036s.243-.485.319-.778c.002.05.005.118.005.21 0 .457.08 1.036.86 1.005.434-.017 1.01-.276 1.421-.349.43-.075.992.11 1.409-.094.405-.165.639-.48.704-.415a2.76 2.76 0 0 0 2.04.787c.583-.018.645-.485.238-.698.795.093 1.03-.337.881-.475-.094-.09-.15-.133-.451-.303l.002.003Zm-7.144-.434c-.299-.405-.496-.694-.524-1.064.382-.043.732-.17 1.301-.2-.148.44-.657.65-.777 1.265v-.001Zm33.804 2.582c-.027-.054-.053-.105-.07-.145a1.234 1.234 0 0 1-.034-.273c-.006-.106-.012-.215-.046-.319-.09-.298-.41-.486-.67-.591-.009-.113-.03-.236-.136-.312a29.288 29.288 0 0 1-.81-.595.959.959 0 0 0-.117-.085.413.413 0 0 0-.17-.038c-.197 0-.355.157-.508.309-.036.034-.07.07-.106.102-.004.003-.007.005-.011.005-.048 0-.148-.148-.172-.215a7.019 7.019 0 0 1-.113-.342 3.908 3.908 0 0 0-.22-.594c-.169-.335-.53-.341-.85-.347-.03 0-.06 0-.09-.002-.145 0-.339-.022-.373-.117-.034-.094.037-.276.08-.409.03-.092.06-.18.07-.264.08-.361.086-.84.015-1.231.08.002.161.011.245.02.073.01.148.02.227.023h.07c.48 0 .886-.094 1.24-.286.713-.428 1.15-1.122 1.167-1.856a2.653 2.653 0 0 0-.312-1.094c-.263-.518-.702-1.03-1.34-1.561.37-.077.677-.168.961-.345.581-.37.84-1.039.725-1.885-.03-.199-.107-.546-.277-.635a.175.175 0 0 0-.08-.02c-.123 0-.242.133-.346.25a1.418 1.418 0 0 1-.11.114c-.198.177-.43.223-.676.27-.127.026-.26.052-.386.099-.584.189-1.577.624-1.665 1.413-.087.781.469 1.305 1.007 1.813.18.17.35.329.497.499.311.358.576.717.507 1.121-.024.139-.222.35-.408.434a1.32 1.32 0 0 1-.441.076c-.497 0-.976-.274-1.398-.515l-.06-.033c-.977-.677-1.986-1.378-3.236-1.512-.476-.092-.89-.38-1.29-.66a14.298 14.298 0 0 0-.28-.191 3.91 3.91 0 0 0-1.366-.489c-.25-.032-.449-.195-.658-.366a2.751 2.751 0 0 0-.346-.255 4.56 4.56 0 0 0-1.61-.647 1.752 1.752 0 0 0-.175-.042c-.15-.032-.304-.064-.413-.18a3.788 3.788 0 0 0-.667-.639c-.367-.245-.938-.507-1.434-.507-.108 0-.207.012-.297.037-.276.068-.491.23-.72.402l-.086.065c-.455.354-1.06.844-1.538 1.184-1.422 1.012-1.957 1.456-2.662 2.227-1.813 1.98-1.262 4.946-2.83 6.665-.407.445-.52.505-.667.627-.182.152-.224.97.964.57-.541.464-.199.679.157.686.626.014 1.318-.204 1.997-.926.472.679 1.292.366 1.718.4.4.031 1.136.467 1.563.441.654-.04.894-.694.828-1.055.105 0 .135-.026.162-.078.077.38.13.64.202.828a.31.31 0 0 0 .026.05l.002.004c.046.083.142.265.239.354.112.135.278.151.41.151.054 0 .108-.002.16-.005.06-.003.117-.007.172-.005.049.036.096.077.142.118.106.093.214.188.346.225.618.16 1.132.302 1.629.477a1.4 1.4 0 0 0 .414.075c.05 0 .1-.004.146-.013.473-.103.892-.508.997-.967.008-.072.06-.077.15-.081.063-.003.135-.006.176-.053.258-.207.416-.487.569-.759l.098-.174a.487.487 0 0 0 .019-.454.444.444 0 0 0-.272-.218c-.247-.068-.52-.074-.758-.074h-.262c-.123 0-.265-.002-.403-.014l-.1-.11c-.073-.066-.167-.081-.257-.096a25.575 25.575 0 0 1-.066-.012l.226-.174c.089.003.18.004.267.004a6.98 6.98 0 0 0 1.431-.137 5.179 5.179 0 0 1 1.325-.14l.193.012c.234.015.476.032.715.032.318 0 .574-.03.806-.09.028.114.051.229.074.34.084.42.164.815.486 1.159.194.246.448.39.694.53.127.07.255.152.381.234.164.084.298.098.487.098.266 0 .605-.113.795-.113.8-.002 1.42.433 2.09.959a.78.78 0 0 0 .433.119c.204 0 .433-.061.63-.168l.016.022c.124.174.252.353.425.493.247.226.568.256.849.256.094 0 .192-.004.287-.008.134-.005.272-.01.401-.005.052.073.152.128.231.124.08-.004.946-.286.992-.301a.973.973 0 0 0 .111-.053c.211-.108.057-.412-.054-.636ZM34.26 14.233c-.21-.418-.373-.792-.633-1.184.593.14 1.274.073 1.274.073a9.824 9.824 0 0 0-.64 1.11h-.001Z"/><path fill="#D2003C" d="M37.956 14.645c-.03-.038-.093-.044-.128-.044a.323.323 0 0 0-.043.003 2.408 2.408 0 0 1-.464.017 2.609 2.609 0 0 0-.119-.003.868.868 0 0 0-.166.013l-.012.002-.006.01c-.008.014-.207.362-.18.579.029.236.27.284.452.32.065.014.141.028.217.028.13 0 .217-.043.26-.13a3.31 3.31 0 0 0 .205-.728.083.083 0 0 0-.015-.068Zm13.057.781c-.113-.164-.31-.295-.47-.4a2.005 2.005 0 0 1-.181-.13l-.032-.023a.196.196 0 0 0-.129-.047c-.178 0-.373.215-.377.288-.005.109.148.299.348.538l.044.051c.102.12.21.186.326.194h.002a.424.424 0 0 0 .307-.13c.074-.068.235-.236.163-.341h-.001Zm.836 1.391c-.03-.064-.059-.125-.069-.169a2.607 2.607 0 0 1-.037-.245 1.356 1.356 0 0 0-.074-.352.36.36 0 0 0-.315-.203c-.045 0-.09.01-.13.03-.198.1-.314.204-.281.425a7.9 7.9 0 0 1 .232.871c.009.049.04.208.117.208.006 0 .012 0 .017-.003l.564-.186a.09.09 0 0 0 .06-.05c.033-.075-.026-.203-.084-.326Z"/><path fill="#D2003C" d="M50.854 17.266a3.428 3.428 0 0 0-.285-1l-.006-.016h-.018c-.326.02-.529-.244-.724-.498-.065-.084-.126-.165-.19-.233a2.933 2.933 0 0 0-.314-.303c-.114-.1-.213-.187-.251-.267a3.148 3.148 0 0 1-.145-.458 4.713 4.713 0 0 0-.098-.33l-.02-.053c-.058-.158-.13-.353-.334-.387-.102-.016-.212-.02-.318-.026-.295-.012-.59-.063-.742-.274-.14-.195-.082-.374-.003-.567.035-.084.059-.155.08-.237.106-.355.141-.796.061-1.107-.012-.05-.029-.1-.045-.147-.044-.13-.093-.325-.061-.384.032-.06.065-.07.124-.07.053 0 .11.016.168.033.04.011.071.017.108.026.147.036.364.075.565.075.331 0 .678-.07.978-.2.567-.275 1.126-.896 1.098-1.664-.074-.778-.556-1.53-1.471-2.3a4.216 4.216 0 0 0-.069-.058c-.12-.099-.262-.222-.267-.333-.003-.11.283-.178.463-.219l.11-.026.046-.013c.228-.06.464-.12.658-.256.653-.439.629-1.215.556-1.642a.276.276 0 0 1-.01-.04c-.013-.056-.027-.126-.078-.126-.017 0-.032.008-.05.023l-.059.056a1.36 1.36 0 0 1-.254.206c-.208.123-.457.175-.7.226a3.73 3.73 0 0 0-.46.117c-.649.224-1.052.553-1.197.978-.076.22-.036.5.11.769.213.335.52.63.817.915.469.449.953.913 1.065 1.544.061.367-.087.676-.455.945a1.373 1.373 0 0 1-.712.178c-.334 0-.696-.091-.992-.25-.38-.19-.749-.436-1.104-.674-.534-.357-1.087-.727-1.7-.922-.266-.12-.561-.18-.846-.238-.406-.082-.825-.167-1.16-.43-.115-.075-.23-.159-.342-.239-.305-.22-.62-.448-.978-.54-.134-.045-.264-.063-.39-.081-.196-.028-.38-.055-.549-.175l-.231-.168c-.284-.208-.578-.423-.872-.57-.505-.252-1.044-.381-1.646-.513-.192-.045-.311-.19-.438-.345-.085-.103-.172-.21-.284-.285-.464-.367-.884-.612-1.425-.612-.05 0-.102.002-.153.007-.284.02-.562.235-.746.395-.54.474-1.122.895-1.684 1.302-.838.606-1.704 1.232-2.444 2.04-.728.752-.993 1.69-1.248 2.599-.038.134-.075.267-.115.4a30.09 30.09 0 0 0-.194.751c-.334 1.34-.679 2.676-2.017 3.545-.088.057-.057.17.026.202.036.013.597.202 1.154-.36.34-.42.526-.805.931-1.239.014-.013.06-.05.1-.046.027.014.033.026.026.074-.051.173-.157.326-.26.474-.106.15-.214.308-.269.486-.127.384-.486.696-.803.97 0 0-.05.032-.08.069-.028.037-.027.053-.027.053-.01.085.058.136.193.142.75 0 1.283-.534 1.8-1.049a.114.114 0 0 1 .085-.033c.027 0 .053.003.082.014.034.018.114.095.174.15.17.15.344.305.569.352h.009c.273-.038.52-.07.772-.07.073 0 .142.003.204.007.274.082.547.185.811.285.187.07.38.143.573.209l.005.002h.004c.25-.01.43-.242.56-.448.061-.145.032-.289.004-.427a1.003 1.003 0 0 1-.03-.247c.047-.023.11-.02.177-.008a.77.77 0 0 0 .176-.004c.065-.01.134-.086.115-.184-.05-.25-.175-.404-.3-.597-.109-.163-.212-.317-.266-.49-.083-.23-.257-.42-.426-.603-.195-.213-.38-.415-.435-.671 0 0-.017-.054.002-.075.02-.02.072.004.072.004.09.066.18.14.267.211.284.231.578.47.935.524.333.033.697.074 1.053.045.094-.016.142-.098.119-.177a5.477 5.477 0 0 1-.378-.975c-.075-.265-.242-.963-.072-1.489.017-.051.052-.069.083-.069l.012.002c.057.015.097.083.105.137l.005.068c.05.717.097 1.395.536 1.97.117.186.284.286.447.382.112.066.24.123.32.228a.444.444 0 0 1 .044.439l-.537.793c-.127.18-.25.375-.295.573-.04.2-.023.394-.007.582l.004.046c-.013-.005-.027-.022-.04-.044-.217-.393-.26-.725-.15-.98.071-.166.508-.785.637-.99.04-.064.073-.13.038-.175-.042-.056-.371-.197-.457-.197-.007 0-.013 0-.017.002-.078.023-.127.093-.17.155l-.03.043-.664 1.203-.014.046c-.04.12-.073.224-.04.364.036.18.093.374.134.516l.034.118c.06.21.115.405.207.515a.28.28 0 0 0 .23.1c.049 0 .1-.008.151-.015a.657.657 0 0 1 .24-.006c.1.025.17.1.242.178.074.078.15.16.26.192.205.069.42.125.627.18.278.072.564.147.836.253.154.049.32.095.479.095.177 0 .285-.05.44-.174.217-.175.287-.348.34-.596.044-.23.118-.245.285-.255.08-.004.093 0 .172-.027.082-.027.322-.32.447-.562.034-.065.072-.124.106-.176a.266.266 0 0 0 .052-.152c-.002-.118-.1-.157-.164-.159l-.041-.002s-.708-.004-.902 0c-.291.017-.418.295-.52.542a1.745 1.745 0 0 1-.125.264.439.439 0 0 1-.412.218c-.053 0-.173-.033-.235-.047-.382-.094-.777-.192-.938-.57-.015-.066-.04-.2.056-.314.204-.237.473-.535.75-.751.383-.08.767-.365.979-.723.044-.062.067-.134.09-.204.035-.108.068-.21.165-.273.062-.03.112-.02.126.034.037.2-.04.392-.113.578-.017.043-.033.083-.047.124l-.011.03.032.003c.105.01.214.016.325.016.393 0 .768-.068 1.132-.133.36-.065.732-.132 1.117-.132.041 0 .083 0 .125.002.17 0 .337.016.498.03.158.014.32.028.483.028.058 0 .113-.002.166-.006.492-.022.85-.246.957-.598.102-.3.09-.822-.033-1.549a3.62 3.62 0 0 0-.01-.062v-.014c0-.027 0-.056.035-.074.046-.024.095 0 .118.06.187.521.294 1.124.351 1.537.063.403.231.809.516 1.245.352.525.931.826 1.59.826.154 0 .307-.028.46-.049.106-.014.145-.008.217-.008.837 0 1.567.363 2.11 1.05 0 0 .009.013.008.034-.002.03-.043.057-.08.042l-.07-.055c-.473-.367-.962-.745-1.575-.82a1.877 1.877 0 0 0-.346-.03c-.177 0-.35.021-.52.04a4.12 4.12 0 0 1-.49.038 1.45 1.45 0 0 1-.554-.1c-.706-.232-1.281-1.043-1.466-1.546a.086.086 0 0 0-.074-.048.112.112 0 0 0-.06.02c-.082.05-.095.078-.108.129-.01.043.058.404.088.559.092.385.231.966.735 1.18.063.036.125.077.187.116.251.162.511.33.81.33.072 0 .142-.01.212-.029.178-.04.361-.059.545-.059.58 0 1.17.198 1.667.559.083.047.161.113.237.177.106.09.216.184.348.23.082.034.17.05.265.05.225.002.281-.067.441-.146a.447.447 0 0 1 .188-.046c.18 0 .28.14.407.319.076.107.163.228.28.335.165.16.391.18.57.18.097 0 .196-.007.292-.013.093-.007.204-.009.262-.016a.813.813 0 0 0 .09-.015l-.003-.023.01-.008Zm-19.096-2.681c-.034.06-.113.094-.215.094a.455.455 0 0 1-.244-.068c-.134-.096-.212-.256-.224-.465-.003-.049-.006-.098.059-.147.034-.02.051-.02.09-.02.128 0 .334.083.444.216.007.01.178.236.09.39Zm.184-2.959c-.047.062-.12.108-.191.073-.067-.024-.127-.11-.164-.175-.046-.082-.084-.154-.193-.145l-.017.002a.463.463 0 0 0-.246.115c-.039.03-.193.146-.232.179-.21.176-.42.36-.472.608a3.06 3.06 0 0 0-.029.132c-.015.087-.03.177-.103.224l-.007.002a.122.122 0 0 1-.032.005.138.138 0 0 1-.09-.035c-.026-.023-.042-.045-.043-.084a1.276 1.276 0 0 1 .407-1.082c.194-.16.35-.36.5-.553a6.51 6.51 0 0 1 .229-.283c.06-.06.157-.009.319.167.067.074.278.433.375.67a.234.234 0 0 1-.01.183v-.003Zm3.531-4.96c-.081.077-.165.153-.25.231-.3.273-.61.555-.812.875a2.519 2.519 0 0 0-.236.428c-.008.015-.024.048-.058.048a.068.068 0 0 1-.046-.021c-.058-.058-.01-.46.065-.661.165-.447.54-.913 1.03-1.282a.348.348 0 0 1 .181-.052c.093 0 .164.043.193.115.06.099.038.213-.068.318h.001Zm-20.027 8.448c-.014-.026-.03-.054-.047-.09-.05-.094-.077-.193-.103-.28-.05-.177-.092-.327-.28-.3-.27.04-.532.057-.823.057-.004 0-.095 0-.123.064-.032.074.042.142.12.213.044.04.09.082.121.129.054.078.106.192.156.302.08.175.147.326.227.351.033.01.07.016.112.016.182 0 .435-.099.617-.241.103-.087.07-.143.024-.222ZM2.302 14.84l-.014-.01c-.055-.045-.157-.04-.224.007l-.14.094c-.15.1-.306.202-.47.34a.338.338 0 0 0-.097.217c-.005.057.005.104.029.132.013.016.132.15.158.17.04.033.102.076.192.076.05 0 .104-.015.16-.043.29-.146.59-.683.601-.715.032-.087-.067-.167-.194-.267Zm-.956 1.276c-.06-.085-.258-.317-.37-.317a.08.08 0 0 0-.026.005c-.154.063-.333.264-.342.383-.038.52-.053.576-.196.735-.04.045-.067.147-.021.193.04.04.552.203.609.203l.012-.002c.046-.014.084-.13.187-.49.056-.194.12-.413.19-.612.005-.013.006-.032-.041-.099l-.002.001Z"/><path fill="#D2003C" d="M17.024 16.081c.21-.015.426-.03.58-.193.195-.283.36-.567.508-.866.131-.27.132-.532.002-.739-.386-.619-.455-.781-.613-1.203l-.004-.011-.011-.004a1.717 1.717 0 0 1-.135-.048.817.817 0 0 0-.308-.077h-.014c-.133.004-.223.046-.26.12l-.005.012.7 1.384c.046.108.097.218.07.38-.027.16-.372.702-.474.77-.026.018-.046.026-.061.026-.01 0-.045-.007-.022-.09.066-.223.147-.752.126-.922-.025-.196-.613-1.168-.638-1.21l-.01-.017c-.092-.148-.185-.301-.177-.482 0-.082.077-.14.133-.161.102-.04.199-.054.304-.077.25-.055.508-.112.6-.251.281-.428.448-.873.559-1.49.005-.027.024-.078.063-.078.023 0 .045.007.055.06a2.243 2.243 0 0 1-.384 1.683.188.188 0 0 0-.025.133c.008.05.063.09.063.09.136.092.627.04.984-.149.271.006.529-.042.777-.089l.235-.042a.11.11 0 0 1 .05.054 1.71 1.71 0 0 0-.403.833c-.058.06-.123.118-.185.175-.229.21-.475.444-.487.744 0 0-.007.107.11.116.036.003.078-.017.116-.033.043-.017.088-.035.121-.03a.08.08 0 0 1 .067.074l-.26.381c-.099.16-.057.33-.017.495.03.09.017.162.041.241.065.19.298.281.483.281.34-.015.65-.126.95-.234.053-.02.106-.04.161-.058.328-.142.767-.172 1.288-.087.42-.027.735-.303 1.04-.573.13.004.265.081.404.23.453.487 1.008.724 1.7.724.024 0 .05 0 .078-.002l.07-.005c.07-.017.09-.053.094-.097.005-.054-.037-.107-.114-.144l-.387-.205c-.308-.196-.646-.432-.739-.745a4.135 4.135 0 0 0-.515-1.03 1.655 1.655 0 0 1-.15-.244l.001-.002c.422.151.657.463.941.982.21.385.762.802 1.282.802a.898.898 0 0 0 .2-.021c.055-.013.092-.048.1-.096.007-.042 0-.083-.047-.106l-.316-.158c-.374-.218-.59-.58-.8-.932a5.746 5.746 0 0 0-.258-.409 1.687 1.687 0 0 0-.254-.26c-.079-.071-.154-.138-.167-.175-.342-.934-.715-2.031-.804-3.251-.014-.188-.146-.595-.3-.86-.485-.793-1.647-2.148-1.71-2.216l-.123-.124-.031-.03-2.091-1.739c-.416-.291-.544-.343-.844-.452a1.957 1.957 0 0 0-.657-.107c-.296 0-.592.057-.834.162a7.033 7.033 0 0 0-.487.292c-.267.17-.543.347-.844.447a6.468 6.468 0 0 1-.73.258c-.474.147-.965.3-1.353.656-.113.103-.206.191-.284.264-.358.338-.396.374-.69.374-.68 0-1.163.167-1.665.577-.397.362-.793.7-1.252.859a2.995 2.995 0 0 1-.676.122c-.347.03-.4.034-.73.112-.497.114-1.023.522-1.467.868a9.488 9.488 0 0 1-.433.324c-.048.03-.106.067-.153.095-.553.324-1.075.63-1.744.63h-.05c-.499-.037-.953-.38-1.106-.837-.14-.514.01-1.04.415-1.445.193-.192.412-.379.624-.56.342-.29.665-.565.89-.867.26-.35.231-.939-.062-1.26-.292-.321-.945-.481-1.19-.54l-.043-.012c-.025-.005-.068-.01-.091-.016-.156-.03-.305-.051-.458-.089-.388-.106-.689-.406-1.033-.592a1.048 1.048 0 0 0-.16.672c.066.52.498 1.058.978 1.277.02.01.04.017.06.025.152.064.312.074.463.074h.193c.093 0 .203 0 .305.025.093.024.19.116.203.234.007.069-.023.122-.111.19-.08.068-.163.136-.244.203-.413.341-.84.694-1.186 1.122-.465.502-.486 1.373-.27 1.939.276.744 1.042 1.16 1.676 1.241.113.018.227.027.346.027.374 0 .73-.09 1.075-.177a.15.15 0 0 1 .033-.005c.015 0 .045 0 .05.08.011.153.02.327.027.497.012.274.024.533.044.643.047.244.168.541.248.737.034.084.06.15.07.182a.301.301 0 0 1-.073.3c-.262.24-.794.432-.891.444a5.93 5.93 0 0 1-.448.034 2.684 2.684 0 0 0-.137.01.243.243 0 0 0-.147.068c-.075.072-.157.282-.252.525a6.919 6.919 0 0 1-.176.423c-.166.278-.446.44-.717.596-.068.04-.135.078-.2.119l-.008.008c-.111.175-.223.345-.366.47-.112.104-.255.128-.392.144h-.01l-.006.01c-.211.24-.279.563-.346.874l-.03.143-.01.045.029.002c.11.011.222.035.341.06.156.034.316.07.474.07a.794.794 0 0 0 .391-.096c.202-.092.31-.278.415-.457.069-.118.14-.24.237-.335a.272.272 0 0 1 .215-.091c.078 0 .165.023.248.045.077.02.156.042.231.046.372.02.725-.213.898-.35.076-.06.151-.131.224-.199.113-.105.229-.214.354-.293a1.28 1.28 0 0 1 .56-.107c.28 0 .579.056.815.1a1.5 1.5 0 0 0 .387.05c.226 0 .437-.051.61-.149.208-.118.417-.227.584-.315.098-.051.185-.097.253-.135.298-.164.55-.617.644-.805.088-.175.24-.553.241-.557l.007-.017-.348-.266-.015.024s-.23.38-.378.553c-.612.836-1.61.942-2.412.942a4.798 4.798 0 0 0-.165-.003c-.993 0-1.792.334-2.377.99-.028.03-.074.036-.094.01-.013-.016-.016-.042-.01-.072a.494.494 0 0 1 .067-.165c.621-.882 1.68-1.012 2.537-1.028.63-.043 1.091-.152 1.49-.356.513-.26.893-.838 1.042-1.294.097-.301.146-.621.191-.93.037-.246.075-.5.137-.734a.076.076 0 0 1 .071-.05.07.07 0 0 1 .025.004c.033.006.094.03.094.077-.086.484-.204 1.148.018 1.703.103.22.323.326.673.326.212 0 .443-.037.666-.071.174-.028.337-.054.478-.06a2.24 2.24 0 0 1 .18-.008c.28 0 .548.054.807.106a4.711 4.711 0 0 0 .838.115c.084.006.17.013.258.013.203 0 .347-.04.452-.126.074-.06.047-.15.015-.263l-.005-.02-.02-.064c-.046-.15-.117-.377 0-.481a.106.106 0 0 1 .065-.022c.02 0 .046.006.054.036.014.043.026.087.038.13.051.182.104.37.221.53.244.312.621.607 1.09.852.3.208.666.558.694 1.046 0 .222-.214.375-.374.472-.251.126-.683.266-.886.266a.177.177 0 0 1-.078-.013c-.29-.155-.442-.408-.601-.675-.085-.142-.172-.288-.284-.418-.152-.17-.344-.234-.603-.213-.25.02-.48.067-.754.126a.168.168 0 0 0-.123.095.2.2 0 0 0 .015.18c.142.252.28.484.425.728l.065.11c.036.06.11.067.17.067.033 0 .07-.002.108-.004a1.74 1.74 0 0 1 .124-.006c.127 0 .207.03.26.095.043.066.082.138.121.207.096.172.194.35.359.477a.9.9 0 0 0 .593.209.95.95 0 0 0 .289-.044c.655-.206 1.293-.416 1.9-.741 0 0 .24-.005.333-.012l.005-.004Zm1.09-7.349c-.012.041-.037.068-.065.068-.013 0-.042-.006-.053-.058-.109-.559-.176-.833-.302-1.092-.04-.083-.092-.151-.136-.212-.094-.129-.175-.239-.085-.389.027-.044.094-.073.167-.073a.22.22 0 0 1 .098.02c.108.052.213.183.32.4.27.551.056 1.33.054 1.338l.001-.002Zm3.514 5.57s-.017.158-.091.226c-.075.067-.34.104-.48.098-.14-.006-.19-.025-.218-.067-.033-.049.02-.143.02-.143.017-.034.182-.375.512-.464 0 0 .106-.038.207.011.101.05.055.304.05.34V14.3Zm.956-2.198a.627.627 0 0 1-.069.222c-.017.031-.046.099-.143.1-.105 0-.097-.124-.098-.14 0 0-.013-.344-.079-.489-.071-.157-.416-.601-.616-.583-.05.005-.18.082-.277.21-.117.15-.117.17-.153.193-.036.024-.083.011-.098-.078-.016-.09-.032-.162.01-.334.04-.172.083-.21.134-.332 0 0 .104-.24.143-.3.107-.162.25-.152.25-.152.039.003.162-.013.294.153.154.193.121.175.163.243.044.068.09.138.216.276.127.139.267.407.306.575.038.167.035.308.015.438l.002-.002Z"/></g><defs><clipPath id="a"><path fill="#fff" d="M0 0h52.366v20H0z"/></clipPath></defs></svg>